<svg xmlns="http://www.w3.org/2000/svg" xmlns:xlink="http://www.w3.org/1999/xlink" xmlns:fi="http://pattern.flaticon.com/" x="0" y="0" width="700" height="700" viewBox="0 0 700 700"><rect x="0px" y="0px" width="100%" height="100%" opacity="0" fill="#ffffff"/><defs><g transform="matrix(0.1381067979886332 -0.013810680008407872 0.013810680008407872 0.1381067979886332 282.10912563275747 311.1801937970623)" id="L1_0"><path d="m256 426.667969c-94.105469 0-170.667969-76.5625-170.667969-170.667969s76.5625-170.667969 170.667969-170.667969 170.667969 76.5625 170.667969 170.667969-76.5625 170.667969-170.667969 170.667969zm0-324.269531c-84.691406 0-153.601562 68.910156-153.601562 153.601562s68.910156 153.601562 153.601562 153.601562 153.601562-68.910156 153.601562-153.601562-68.910156-153.601562-153.601562-153.601562zm0 0"/><path d="m256 512c-4.710938 0-8.535156-3.824219-8.535156-8.535156v-51.199219c0-4.710937 3.824218-8.53125 8.535156-8.53125s8.535156 3.820313 8.535156 8.53125v51.199219c0 4.710937-3.824218 8.535156-8.535156 8.535156zm0 0"/><path d="m256 68.265625c-4.710938 0-8.535156-3.820313-8.535156-8.53125v-51.199219c0-4.710937 3.824218-8.535156 8.535156-8.535156s8.535156 3.824219 8.535156 8.535156v51.199219c0 4.710937-3.824218 8.53125-8.535156 8.53125zm0 0"/><path d="m59.734375 264.535156h-51.199219c-4.710937 0-8.535156-3.824218-8.535156-8.535156s3.824219-8.535156 8.535156-8.535156h51.199219c4.710937 0 8.53125 3.824218 8.53125 8.535156s-3.820313 8.535156-8.53125 8.535156zm0 0"/><path d="m503.464844 264.535156h-51.199219c-4.710937 0-8.53125-3.824218-8.53125-8.535156s3.820313-8.535156 8.53125-8.535156h51.199219c4.710937 0 8.535156 3.824218 8.535156 8.535156s-3.824219 8.535156-8.535156 8.535156zm0 0"/><path d="m213.332031 384c-1.3125 0-2.636719-.296875-3.863281-.921875-3.492188-1.773437-5.324219-5.707031-4.445312-9.53125l23.183593-100.480469h-40.472656c-3.347656 0-6.375-1.953125-7.765625-4.984375-1.390625-3.035156-.878906-6.605469 1.3125-9.128906l110.933594-128c2.570312-2.96875 6.828125-3.796875 10.316406-2.023437 3.5 1.773437 5.335938 5.710937 4.445312 9.53125l-23.183593 100.472656h40.472656c3.347656 0 6.375 1.953125 7.765625 4.984375 1.390625 3.035156.878906 6.605469-1.3125 9.128906l-110.933594 128c-1.664062 1.929687-4.035156 2.953125-6.453125 2.953125zm-6.910156-128h32.511719c2.601562 0 5.058594 1.1875 6.671875 3.21875 1.621093 2.027344 2.21875 4.691406 1.640625 7.234375l-17.878906 77.484375 76.210937-87.9375h-32.511719c-2.601562 0-5.058594-1.1875-6.679687-3.21875-1.613281-2.027344-2.21875-4.691406-1.640625-7.234375l17.886718-77.484375zm0 0"/><path d="m430.984375 439.519531c-2.183594 0-4.367187-.839843-6.03125-2.5l-36.199219-36.199219c-3.335937-3.335937-3.335937-8.730468 0-12.066406 3.335938-3.335937 8.730469-3.335937 12.066406 0l36.199219 36.199219c3.335938 3.335937 3.335938 8.726563 0 12.066406-1.664062 1.660157-3.851562 2.5-6.035156 2.5zm0 0"/><path d="m117.222656 125.746094c-2.183594 0-4.371094-.835938-6.035156-2.5l-36.207031-36.199219c-3.335938-3.335937-3.335938-8.726563 0-12.066406 3.328125-3.335938 8.730469-3.335938 12.066406 0l36.207031 36.199219c3.339844 3.335937 3.339844 8.730468 0 12.066406-1.664062 1.671875-3.855468 2.5-6.03125 2.5zm0 0"/><path d="m81.015625 439.519531c-2.183594 0-4.371094-.839843-6.035156-2.5-3.335938-3.339843-3.335938-8.730469 0-12.066406l36.207031-36.199219c3.339844-3.335937 8.738281-3.335937 12.066406 0 3.339844 3.335938 3.339844 8.730469 0 12.066406l-36.207031 36.199219c-1.664063 1.660157-3.847656 2.5-6.03125 2.5zm0 0"/><path d="m394.785156 125.746094c-2.183594 0-4.367187-.835938-6.03125-2.5-3.335937-3.335938-3.335937-8.730469 0-12.066406l36.199219-36.199219c3.335937-3.335938 8.726563-3.335938 12.066406 0 3.335938 3.339843 3.335938 8.730469 0 12.066406l-36.199219 36.199219c-1.671874 1.671875-3.851562 2.5-6.035156 2.5zm0 0"/></g><g transform="matrix(0.11404948349559568 -0.031363607901075265 0.031363607901075265 0.11404948349559568 7.93755243955593 21.493901958489264)" id="L1_1"><path d="m272 264h-16v16h-16v16h16v16h16v-16h16v-16h-16zm0 0"/><path d="m496 152v-80h-40v-30.113281l20.945312-41.886719h-89.890624l20.945312 41.886719v30.113281h-20.449219c-5.550781-9.519531-15.757812-16-27.550781-16h-128c-17.648438 0-32 14.351562-32 32h-40v-32h-120c-22.054688 0-40 17.945312-40 40v8h88v16h-88v8c0 22.054688 17.945312 40 40 40h120v-32h40c0 17.648438 14.351562 32 32 32h5.121094l-26.480469 84.753906c-6.710937 10.109375-10.640625 22.222656-10.640625 35.246094 0 35.289062 28.710938 64 64 64 3.160156 0 6.246094-.304688 9.289062-.753906l12.949219 64.753906h-11.183593l-16 32h-19.054688v48h256v-48h-19.054688l-16-32h-12.945312v-60.527344l-118.800781-71.28125 29.039062-116.191406h1.761719c11.792969 0 22-6.480469 27.550781-16h20.449219v22.113281l-20.945312 41.886719h89.890624l-20.945312-41.886719v-22.113281zm-478.632812-64c3.304687-9.3125 12.199218-16 22.632812-16h104v16zm126.632812 64h-104c-10.433594 0-19.328125-6.6875-22.632812-16h126.632812zm16-32h-56v-16h96v16zm56 168c0-26.472656 21.527344-48 48-48s48 21.527344 48 48-21.527344 48-48 48-48-21.527344-48-48zm110.59375 13.289062 52.839844 31.703126-85.578125 39.496093-5.09375-25.480469c19.070312-8.03125 33.445312-25.046874 37.832031-45.71875zm68.292969 40.976563 27.792969 16.679687-120.800782 53.6875-4.800781-24.007812 98.273437-45.351562zm85.113281 137.734375h-224v-16h224zm-20.945312-32h-182.109376l8-16h166.109376zm-125.359376-32 98.304688-43.6875v43.6875zm-14.0625-159.511719c-11.015624-19.367187-31.800781-32.488281-55.632812-32.488281-10.824219 0-21.015625 2.71875-29.960938 7.488281l19.839844-63.488281h87.882813zm56.367188-120.488281c0 8.824219-7.175781 16-16 16h-128c-8.824219 0-16-7.175781-16-16v-48c0-8.824219 7.175781-16 16-16h128c8.824219 0 16 7.175781 16 16zm75.054688-120-8 16h-22.109376l-8-16zm-27.054688 32h16v24h-16zm56 40v16h-88v-16zm-88 32h88v16h-88zm20.945312 80 8-16h22.109376l8 16zm27.054688-32h-16v-16h16zm0 0"/><path d="m264 88c-13.230469 0-24 10.769531-24 24s10.769531 24 24 24 24-10.769531 24-24-10.769531-24-24-24zm0 32c-4.414062 0-8-3.59375-8-8s3.585938-8 8-8 8 3.59375 8 8-3.585938 8-8 8zm0 0"/><path d="m328 88c-13.230469 0-24 10.769531-24 24s10.769531 24 24 24 24-10.769531 24-24-10.769531-24-24-24zm0 32c-4.414062 0-8-3.59375-8-8s3.585938-8 8-8 8 3.59375 8 8-3.585938 8-8 8zm0 0"/><path d="m167.425781 364.105469 12.941407-15.503907-32.96875-32.976562-15.503907 12.949219c-3.480469-1.75-7.078125-3.238281-10.78125-4.460938l-1.800781-20.113281h-46.625l-1.808594 20.121094c-3.703125 1.222656-7.304687 2.710937-10.78125 4.464844l-15.503906-12.953126-32.96875 32.976563 12.941406 15.503906c-1.75 3.472657-3.238281 7.070313-4.460937 10.773438l-20.105469 1.800781v46.625l20.121094 1.808594c1.214844 3.695312 2.710937 7.304687 4.464844 10.773437l-12.945313 15.503907 32.96875 32.976562 15.503906-12.949219c3.480469 1.75 7.078125 3.238281 10.78125 4.460938l1.792969 20.113281h46.625l1.808594-20.121094c3.703125-1.222656 7.304687-2.710937 10.78125-4.464844l15.503906 12.953126 32.96875-32.976563-12.941406-15.503906c1.75-3.472657 3.238281-7.070313 4.460937-10.773438l20.105469-1.800781v-46.625l-20.121094-1.808594c-1.214844-3.703125-2.710937-7.304687-4.453125-10.773437zm8.574219 44.582031-16.632812 1.496094-1.390626 5.503906c-1.511718 6.007812-3.886718 11.746094-7.066406 17.046875l-2.910156 4.875 10.710938 12.824219-12.277344 12.285156-12.832032-10.71875-4.867187 2.910156c-5.292969 3.167969-11.03125 5.546875-17.054687 7.066406l-5.503907 1.390626-1.488281 16.632812h-17.375l-1.496094-16.632812-5.503906-1.390626c-6.023438-1.519531-11.761719-3.898437-17.054688-7.066406l-4.859374-2.910156-12.832032 10.710938-12.277344-12.285157 10.710938-12.816406-2.910156-4.875c-3.167969-5.300781-5.546875-11.039063-7.066406-17.046875l-1.390626-5.503906-16.632812-1.496094v-17.375l16.632812-1.496094 1.390626-5.503906c1.511718-6.007812 3.886718-11.746094 7.066406-17.046875l2.910156-4.875-10.710938-12.824219 12.277344-12.285156 12.832032 10.71875 4.867187-2.910156c5.292969-3.167969 11.03125-5.546875 17.054687-7.066406l5.503907-1.390626 1.488281-16.632812h17.375l1.496094 16.632812 5.503906 1.390626c6.023438 1.519531 11.761719 3.898437 17.054688 7.066406l4.859374 2.910156 12.832032-10.710938 12.277344 12.285157-10.710938 12.816406 2.910156 4.875c3.167969 5.300781 5.546875 11.039063 7.066406 17.046875l1.390626 5.503906 16.632812 1.496094zm0 0"/><path d="m96 352c-26.472656 0-48 21.527344-48 48s21.527344 48 48 48 48-21.527344 48-48-21.527344-48-48-48zm0 80c-17.648438 0-32-14.351562-32-32s14.351562-32 32-32 32 14.351562 32 32-14.351562 32-32 32zm0 0"/><path d="m88 184h16v16h-16zm0 0"/><path d="m88 216h16v16h-16zm0 0"/><path d="m88 248h16v16h-16zm0 0"/></g><g transform="matrix(0.11788422124806816 0.02062973910590885 -0.02062973910590885 0.11788422124806816 31.623407920924016 265.71741454151726)" id="L1_2"><path d="m89.691406 130.632812c22.773438 0 41.234375-18.460937 41.234375-41.234374 0-22.769532-18.460937-41.230469-41.234375-41.230469-22.769531 0-41.230468 18.460937-41.230468 41.230469.027343 22.761718 18.46875 41.207031 41.230468 41.234374zm0-66.464843c13.9375 0 25.234375 11.296875 25.234375 25.230469 0 13.9375-11.296875 25.234374-25.234375 25.234374-13.933594 0-25.230468-11.296874-25.230468-25.234374.015624-13.925782 11.304687-25.210938 25.230468-25.230469zm0 0"/><path d="m448.429688 355.382812-3.089844-80.71875 15.054687-20.703124-18.253906-33.554688 3.664063-11.277344 34.488281-16.417968v-33.421876l-34.488281-16.417968-3.664063-11.277344 18.253906-33.554688-19.648437-27.023437-37.550782 6.984375-9.597656-6.976562-4.960937-37.863282-31.761719-10.328125-26.277344 27.71875h-11.859375l-26.277343-27.71875-31.769532 10.328125-1.550781 11.808594-111.113281-6.617188-7.488282-7.488281-2.070312-16.800781-29.984375-12.460938-13.359375 10.4375h-10.832031l-13.394531-10.4375-30 12.445313-2.0625 16.800781-7.679688 7.679688-16.800781 2.066406-12.464844 30.015625 10.457031 13.390625v10.855469l-10.457031 13.335937 9.914063 23.914063-11.039063 141.535156c-.25 1.804687-.390625 3.621094-.425781 5.4375v.296875h-.046875v.625c-.023438 16.230469 8.171875 31.371094 21.773437 40.230469 13.601563 8.859375 30.765625 10.230469 45.601563 3.648437l47.34375-19.726562c-7.671875 21.660156 1.191406 45.714844 21.089843 57.214844l-73.128906 23.5625c-24.191406 4.824218-40.785156 27.203124-38.378906 51.753906 2.40625 24.550781 23.03125 43.277344 47.699219 43.316406h.421875l294.578125-15.449219 4.511719 10.816407 25.4375 5.21875 20.648437-20.058594 5.257813-1.742188 28.550781 3.679688 17.242187-19.425782-7.050781-27.910156 1.121094-5.433594 17.457031-22.886718-8.175781-24.640625zm-173.195313-310.136718 12.5625-4.078125 24.0625 25.382812h25.601563l24.0625-25.382812 12.570312 4.078125 4.535156 34.683594 20.71875 15.054687 34.398438-6.398437 7.753906 10.679687-16.703125 30.734375 7.917969 24.359375 31.578125 15.039063v13.203124l-31.578125 15.039063-7.917969 24.359375 16.703125 30.726562-7.753906 10.679688-34.398438-6.398438-20.71875 15.054688-4.535156 34.679688-12.570312 4.082031-24.0625-25.382813h-25.601563l-24.0625 25.382813-12.5625-4.082031-4.542969-34.664063-20.71875-15.0625-34.402344 6.398437-7.757812-10.679687 16.703125-30.71875-7.910156-24.367187-31.578125-15.039063v-13.203125l31.578125-15.039062 7.910156-24.367188-16.703125-30.71875 7.757812-10.679688 34.402344 6.398438 20.71875-15.078125zm-254.941406 22.875 5.277343-12.800782 13.035157-1.601562 15.453125-15.429688 1.601562-13.03125 12.800782-5.28125 10.34375 8.078126h21.878906l10.296875-8.054688 12.800781 5.28125 1.597656 13.023438 15.417969 15.457031 13.03125 1.597656 5.289063 12.800781-8.082032 10.34375v21.878906l8.082032 10.34375-5.289063 12.800782-13.03125 1.601562-15.457031 15.457032-1.601563 13.03125-12.796875 5.285156-10.34375-8.078125h-21.839844l-10.347656 8.078125-12.796875-5.285156-1.601562-13.03125-15.441407-15.539063-13.023437-1.597656-5.277344-12.800781 8.078125-10.34375v-21.839844zm-4 212.023437.09375-1.25c1.613281-16.484375 16.199219-28.601562 32.703125-27.160156s28.769531 15.902344 27.496094 32.421875c-1.269532 16.515625-15.601563 28.929688-32.128907 27.832031-16.53125-1.101562-29.09375-15.304687-28.164062-31.84375zm144 7.855469c17.671875 0 32 14.328125 32 32s-14.328125 32-32 32c-17.675781 0-32-14.328125-32-32s14.324219-32 32-32zm-120 144c.035156-12.429688 7.265625-23.710938 18.542969-28.9375l7.734374-2.488281c11.855469-2.105469 23.886719 2.628906 31.128907 12.246093 7.242187 9.621094 8.460937 22.492188 3.160156 33.300782-5.304687 10.808594-16.234375 17.71875-28.269531 17.878906h-.394532c-17.636718-.054688-31.902343-14.363281-31.902343-32zm69.390625 30.023438c8.722656-10.800782 12.324218-24.859376 9.871094-38.523438-2.457032-13.664062-10.730469-25.589844-22.671876-32.675781l78.136719-25.136719c16.878907-5.265625 29.496094-19.390625 32.835938-36.753906 3.339843-17.363282-3.136719-35.15625-16.855469-46.3125-13.722656-11.152344-32.464844-13.859375-48.78125-7.046875l-48.605469 20.257812c7.019531-19.976562.09375-42.191406-17.035156-54.640625-17.132813-12.445312-40.398437-12.167968-57.230469.679688l8-102.0625 3.878906.480468 7.679688 7.679688 2.066406 16.800781 30.007813 12.414063 13.359375-10.398438h10.855468l13.351563 10.398438 29.921875-12.382813 2.070312-16.800781 7.679688-7.679688 16.800781-2.074218 12.417969-29.988282-10.402344-13.355468v-10.902344l10.402344-13.359375-6.144531-14.847656 85.800781 5.078125-1.328125 10.160156-9.601563 6.96875-37.542968-6.984375-19.648438 27.023437 18.246094 33.554688-3.65625 11.253906-34.488281 16.441406v33.421876l34.480469 16.417968 3.664062 11.277344-18.246094 33.554688 19.648438 27.023437 37.542968-6.984375 9.601563 6.96875 4.957031 37.871094 31.769532 10.328125 26.28125-27.71875h11.855468l26.277344 27.71875 31.769531-10.328125 4.960938-37.863282 9.597656-6.976562 26.304687 4.894531 1.914063 50.058594-2.042969-4.890625-25.445312-5.230469-20.695313 20.046875-5.257812 1.753906-28.550781-3.679687-17.242188 19.421875 7.035156 27.914062-1.121094 5.429688-17.457031 22.882812 8.199219 24.644532 27.6875 7.875 4.152344 3.679687v.054688zm338.402344-59.128907-2.59375 12.59375 5.863281 23.253907-6.007813 6.761718-23.785156-3.046875-12.191406 4.046875-17.207032 16.695313-8.855468-1.808594-9.234375-22.125-9.597657-8.539063-23.066406-6.558593-2.863281-8.59375 14.546875-19.0625 2.582031-12.582031-5.863281-23.257813 6.007812-6.769531 23.785157 3.058594 12.199219-4.050782 17.214843-16.703125 8.855469 1.824219 9.242188 22.136719 9.597656 8.519531 23.066406 6.550781 2.855469 8.59375zm0 0"/><path d="m64.292969 280c0 8.835938-7.164063 16-16 16-8.835938 0-16-7.164062-16-16s7.164062-16 16-16c8.835937 0 16 7.164062 16 16zm0 0"/><path d="m176.292969 320c0 8.835938-7.164063 16-16 16-8.835938 0-16-7.164062-16-16s7.164062-16 16-16c8.835937 0 16 7.164062 16 16zm0 0"/><path d="m88.292969 432c0 8.835938-7.164063 16-16 16-8.835938 0-16-7.164062-16-16s7.164062-16 16-16c8.835937 0 16 7.164062 16 16zm0 0"/><path d="m400.292969 360c-22.09375 0-40 17.910156-40 40s17.90625 40 40 40c22.089843 0 40-17.910156 40-40-.027344-22.082031-17.921875-39.972656-40-40zm0 64c-13.253907 0-24-10.746094-24-24s10.746093-24 24-24c13.253906 0 24 10.746094 24 24s-10.746094 24-24 24zm0 0"/><path d="m320.292969 256c44.183593 0 80-35.816406 80-80s-35.816407-80-80-80c-44.183594 0-80 35.816406-80 80 .046875 44.164062 35.835937 79.953125 80 80zm0-144c35.34375 0 64 28.652344 64 64s-28.65625 64-64 64c-35.347657 0-64-28.652344-64-64 .039062-35.328125 28.667969-63.960938 64-64zm0 0"/><path d="m320.292969 224c26.507812 0 48-21.492188 48-48s-21.492188-48-48-48c-26.511719 0-48 21.492188-48 48 .027343 26.5 21.5 47.972656 48 48zm0-80c17.671875 0 32 14.328125 32 32s-14.328125 32-32 32c-17.675781 0-32-14.328125-32-32s14.324219-32 32-32zm0 0"/><path d="m432.292969 24c0 13.253906 10.746093 24 24 24 13.253906 0 24-10.746094 24-24s-10.746094-24-24-24c-13.253907 0-24 10.746094-24 24zm32 0c0 4.417969-3.582031 8-8 8s-8-3.582031-8-8 3.582031-8 8-8 8 3.582031 8 8zm0 0"/><path d="m224.292969 16c0 8.835938-7.164063 16-16 16-8.835938 0-16-7.164062-16-16s7.164062-16 16-16c8.835937 0 16 7.164062 16 16zm0 0"/></g><g transform="matrix(0.1171875 0 0 0.1171875 300 226)" id="L1_3"><path d="M480.36,494.742h-14.382V43.146c0-4.767-3.864-8.629-8.629-8.629H296.27c-4.766,0-8.629,3.862-8.629,8.629v37.393     h-17.258V43.146c0-4.767-3.864-8.629-8.629-8.629H224.36V8.629c0-4.767-3.864-8.629-8.629-8.629s-8.629,3.862-8.629,8.629v25.888     h-37.393c-4.766,0-8.629,3.862-8.629,8.629v37.393h-25.888c-4.766,0-8.629,3.862-8.629,8.629v71.91h-71.91     c-4.766,0-8.629,3.862-8.629,8.629v325.034H31.64c-4.766,0-8.629,3.862-8.629,8.629S26.875,512,31.64,512H480.36     c4.766,0,8.629-3.862,8.629-8.629S485.125,494.742,480.36,494.742z M178.337,51.775h74.786v28.764h-74.786V51.775z      M149.573,494.742h-5.753V480.36c0-4.767-3.864-8.629-8.629-8.629s-8.629,3.862-8.629,8.629v14.382h-5.753v-28.764h28.764     V494.742z M207.101,273.258v14.845v206.639h-40.27v-37.393c0-4.767-3.864-8.629-8.629-8.629H112.18     c-4.766,0-8.629,3.862-8.629,8.629v37.393h-40.27V178.337h143.82V273.258z M215.73,161.079h-71.91V97.798h143.82v166.831H224.36     v-28.764h25.888c4.766,0,8.629-3.862,8.629-8.629s-3.864-8.629-8.629-8.629H224.36v-28.764h25.888     c4.766,0,8.629-3.862,8.629-8.629s-3.864-8.629-8.629-8.629H224.36v-2.876C224.36,164.941,220.496,161.079,215.73,161.079z      M368.18,494.742H224.36V288.103v-6.215h143.82V494.742z M448.719,494.742h-63.281V273.258v-11.506     c0-4.767-3.864-8.629-8.629-8.629s-8.629,3.862-8.629,8.629v2.876h-17.258v-2.876c0-4.767-3.864-8.629-8.629-8.629     s-8.629,3.862-8.629,8.629v2.876h-28.764V89.169V51.775h143.82V494.742z"/><path d="M261.753,477.485c4.766,0,8.629-3.864,8.629-8.629V307.778c0-4.767-3.864-8.629-8.629-8.629s-8.629,3.862-8.629,8.629     v161.079C253.124,473.622,256.987,477.485,261.753,477.485z"/><path d="M296.27,477.485c4.766,0,8.629-3.864,8.629-8.629V307.778c0-4.767-3.864-8.629-8.629-8.629s-8.629,3.862-8.629,8.629     v161.079C287.64,473.622,291.504,477.485,296.27,477.485z"/><path d="M330.786,477.485c4.766,0,8.629-3.864,8.629-8.629V307.778c0-4.767-3.864-8.629-8.629-8.629s-8.629,3.862-8.629,8.629     v161.079C322.157,473.622,326.021,477.485,330.786,477.485z"/><path d="M342.292,109.303c4.766,0,8.629-3.862,8.629-8.629V89.169c0-4.767-3.864-8.629-8.629-8.629s-8.629,3.862-8.629,8.629     v11.506C333.663,105.441,337.526,109.303,342.292,109.303z"/><path d="M376.809,109.303c4.766,0,8.629-3.862,8.629-8.629V89.169c0-4.767-3.864-8.629-8.629-8.629s-8.629,3.862-8.629,8.629     v11.506C368.18,105.441,372.043,109.303,376.809,109.303z"/><path d="M411.326,109.303c4.766,0,8.629-3.862,8.629-8.629V89.169c0-4.767-3.864-8.629-8.629-8.629s-8.629,3.862-8.629,8.629     v11.506C402.697,105.441,406.56,109.303,411.326,109.303z"/><path d="M342.292,166.831c4.766,0,8.629-3.862,8.629-8.629v-11.506c0-4.767-3.864-8.629-8.629-8.629s-8.629,3.862-8.629,8.629     v11.506C333.663,162.969,337.526,166.831,342.292,166.831z"/><path d="M376.809,166.831c4.766,0,8.629-3.862,8.629-8.629v-11.506c0-4.767-3.864-8.629-8.629-8.629s-8.629,3.862-8.629,8.629     v11.506C368.18,162.969,372.043,166.831,376.809,166.831z"/><path d="M411.326,166.831c4.766,0,8.629-3.862,8.629-8.629v-11.506c0-4.767-3.864-8.629-8.629-8.629s-8.629,3.862-8.629,8.629     v11.506C402.697,162.969,406.56,166.831,411.326,166.831z"/><path d="M342.292,224.36c4.766,0,8.629-3.862,8.629-8.629v-11.506c0-4.767-3.864-8.629-8.629-8.629s-8.629,3.862-8.629,8.629     v11.506C333.663,220.497,337.526,224.36,342.292,224.36z"/><path d="M376.809,224.36c4.766,0,8.629-3.862,8.629-8.629v-11.506c0-4.767-3.864-8.629-8.629-8.629s-8.629,3.862-8.629,8.629     v11.506C368.18,220.497,372.043,224.36,376.809,224.36z"/><path d="M411.326,224.36c4.766,0,8.629-3.862,8.629-8.629v-11.506c0-4.767-3.864-8.629-8.629-8.629s-8.629,3.862-8.629,8.629     v11.506C402.697,220.497,406.56,224.36,411.326,224.36z"/><path d="M100.674,247.371c4.766,0,8.629-3.862,8.629-8.629v-11.506c0-4.767-3.864-8.629-8.629-8.629s-8.629,3.862-8.629,8.629     v11.506C92.045,243.508,95.909,247.371,100.674,247.371z"/><path d="M135.191,247.371c4.766,0,8.629-3.862,8.629-8.629v-11.506c0-4.767-3.864-8.629-8.629-8.629s-8.629,3.862-8.629,8.629     v11.506C126.562,243.508,130.425,247.371,135.191,247.371z"/><path d="M169.708,247.371c4.766,0,8.629-3.862,8.629-8.629v-11.506c0-4.767-3.864-8.629-8.629-8.629s-8.629,3.862-8.629,8.629     v11.506C161.079,243.508,164.942,247.371,169.708,247.371z"/><path d="M100.674,304.899c4.766,0,8.629-3.862,8.629-8.629v-11.506c0-4.767-3.864-8.629-8.629-8.629s-8.629,3.862-8.629,8.629     v11.506C92.045,301.036,95.909,304.899,100.674,304.899z"/><path d="M135.191,304.899c4.766,0,8.629-3.862,8.629-8.629v-11.506c0-4.767-3.864-8.629-8.629-8.629s-8.629,3.862-8.629,8.629     v11.506C126.562,301.036,130.425,304.899,135.191,304.899z"/><path d="M169.708,304.899c4.766,0,8.629-3.862,8.629-8.629v-11.506c0-4.767-3.864-8.629-8.629-8.629s-8.629,3.862-8.629,8.629     v11.506C161.079,301.036,164.942,304.899,169.708,304.899z"/><path d="M100.674,362.427c4.766,0,8.629-3.862,8.629-8.629v-11.506c0-4.767-3.864-8.629-8.629-8.629s-8.629,3.862-8.629,8.629     v11.506C92.045,358.565,95.909,362.427,100.674,362.427z"/><path d="M135.191,362.427c4.766,0,8.629-3.862,8.629-8.629v-11.506c0-4.767-3.864-8.629-8.629-8.629s-8.629,3.862-8.629,8.629     v11.506C126.562,358.565,130.425,362.427,135.191,362.427z"/><path d="M169.708,362.427c4.766,0,8.629-3.862,8.629-8.629v-11.506c0-4.767-3.864-8.629-8.629-8.629s-8.629,3.862-8.629,8.629     v11.506C161.079,358.565,164.942,362.427,169.708,362.427z"/><path d="M100.674,419.955c4.766,0,8.629-3.862,8.629-8.629V399.82c0-4.767-3.864-8.629-8.629-8.629s-8.629,3.862-8.629,8.629     v11.506C92.045,416.093,95.909,419.955,100.674,419.955z"/><path d="M135.191,419.955c4.766,0,8.629-3.862,8.629-8.629V399.82c0-4.767-3.864-8.629-8.629-8.629s-8.629,3.862-8.629,8.629     v11.506C126.562,416.093,130.425,419.955,135.191,419.955z"/><path d="M169.708,419.955c4.766,0,8.629-3.862,8.629-8.629V399.82c0-4.767-3.864-8.629-8.629-8.629s-8.629,3.862-8.629,8.629     v11.506C161.079,416.093,164.942,419.955,169.708,419.955z"/><path d="M411.326,281.888c4.766,0,8.629-3.862,8.629-8.629v-11.506c0-4.767-3.864-8.629-8.629-8.629s-8.629,3.862-8.629,8.629     v11.506C402.697,278.025,406.56,281.888,411.326,281.888z"/><path d="M411.326,339.416c4.766,0,8.629-3.862,8.629-8.629v-11.506c0-4.767-3.864-8.629-8.629-8.629s-8.629,3.862-8.629,8.629     v11.506C402.697,335.553,406.56,339.416,411.326,339.416z"/><path d="M411.326,396.944c4.766,0,8.629-3.862,8.629-8.629v-11.506c0-4.767-3.864-8.629-8.629-8.629s-8.629,3.862-8.629,8.629     v11.506C402.697,393.081,406.56,396.944,411.326,396.944z"/><path d="M411.326,454.472c4.766,0,8.629-3.862,8.629-8.629v-11.506c0-4.767-3.864-8.629-8.629-8.629s-8.629,3.862-8.629,8.629     v11.506C402.697,450.609,406.56,454.472,411.326,454.472z"/><path d="M258.876,135.191c0-4.767-3.864-8.629-8.629-8.629h-69.034c-4.766,0-8.629,3.862-8.629,8.629     c0,4.767,3.864,8.629,8.629,8.629h69.034C255.013,143.82,258.876,139.958,258.876,135.191z"/></g><g transform="matrix(0.12153398251108749 0.019334952343853823 -0.019334952343853823 0.12153398251108749 118.83704827718819 -30.062447322864976)" id="L1_4"><path d="M366.933,477.867H128c-4.71,0-8.533,3.823-8.533,8.533v17.067c0,4.71,3.823,8.533,8.533,8.533s8.533-3.823,8.533-8.533     v-8.533h230.4c4.71,0,8.533-3.823,8.533-8.533S371.644,477.867,366.933,477.867z"/><path d="M187.733,213.333c0,4.71,3.823,8.533,8.533,8.533H230.4c4.71,0,8.533-3.823,8.533-8.533v-51.2     c0-4.71-3.823-8.533-8.533-8.533h-34.133c-4.71,0-8.533,3.823-8.533,8.533V213.333z M204.8,170.667h17.067V204.8H204.8V170.667z"/><path d="M110.933,102.4H8.533c-4.71,0-8.533,3.823-8.533,8.533V281.6c0,4.71,3.823,8.533,8.533,8.533s8.533-3.823,8.533-8.533     V119.467h93.867c4.71,0,8.533-3.823,8.533-8.533S115.644,102.4,110.933,102.4z"/><path d="M409.6,418.133c0,4.71,3.823,8.533,8.533,8.533h34.133c4.71,0,8.533-3.823,8.533-8.533v-51.2     c0-4.71-3.823-8.533-8.533-8.533h-34.133c-4.71,0-8.533,3.823-8.533,8.533V418.133z M426.667,375.467h17.067V409.6h-17.067     V375.467z"/><path d="M42.667,307.2C0.486,307.2,0,417.024,0,418.133c0,20.608,14.686,37.837,34.133,41.805v43.529     c0,4.71,3.823,8.533,8.533,8.533c4.71,0,8.533-3.823,8.533-8.533v-43.529c19.447-3.968,34.133-21.197,34.133-41.805     C85.333,417.024,84.847,307.2,42.667,307.2z M42.667,443.733c-14.114,0-25.6-11.486-25.6-25.6     c0-42.513,11.418-93.867,25.6-93.867c14.182,0,25.6,51.354,25.6,93.867C68.267,432.247,56.781,443.733,42.667,443.733z"/><path d="M93.867,256H59.733c-4.71,0-8.533,3.823-8.533,8.533V281.6c0,4.71,3.823,8.533,8.533,8.533s8.533-3.823,8.533-8.533     v-8.533h17.067v42.667c0,4.71,3.823,8.533,8.533,8.533c4.71,0,8.533-3.823,8.533-8.533v-51.2     C102.4,259.823,98.577,256,93.867,256z"/><path d="M418.133,221.867h34.133c4.71,0,8.533-3.823,8.533-8.533v-51.2c0-4.71-3.823-8.533-8.533-8.533h-34.133     c-4.71,0-8.533,3.823-8.533,8.533v51.2C409.6,218.044,413.423,221.867,418.133,221.867z M426.667,170.667h17.067V204.8h-17.067     V170.667z"/><path d="M93.867,153.6H59.733c-4.71,0-8.533,3.823-8.533,8.533v51.2c0,4.71,3.823,8.533,8.533,8.533h34.133     c4.71,0,8.533-3.823,8.533-8.533v-51.2C102.4,157.423,98.577,153.6,93.867,153.6z M85.333,204.8H68.267v-34.133h17.067V204.8z"/><path d="M273.067,213.333c0,4.71,3.823,8.533,8.533,8.533h34.133c4.71,0,8.533-3.823,8.533-8.533v-51.2     c0-4.71-3.823-8.533-8.533-8.533H281.6c-4.71,0-8.533,3.823-8.533,8.533V213.333z M290.133,170.667H307.2V204.8h-17.067V170.667z     "/><path d="M503.467,102.4h-102.4c-4.71,0-8.533,3.823-8.533,8.533s3.823,8.533,8.533,8.533h93.867V462.37     c-2.679-0.956-5.521-1.57-8.533-1.57c-1.476,0-2.944,0.128-4.386,0.384c-5.888-10.607-17.092-17.451-29.747-17.451     c-12.655,0-23.859,6.844-29.747,17.451c-1.442-0.256-2.91-0.384-4.386-0.384c-14.114,0-25.6,11.486-25.6,25.6     s11.486,25.6,25.6,25.6H486.4c14.114,0,25.6-11.486,25.6-25.6V110.933C512,106.223,508.177,102.4,503.467,102.4z M486.4,494.933     h-68.267c-4.702,0-8.533-3.831-8.533-8.533s3.831-8.533,8.533-8.533c1.638,0,3.191,0.469,4.625,1.391     c2.338,1.502,5.257,1.775,7.834,0.734c2.577-1.041,4.48-3.277,5.103-5.982c1.801-7.774,8.619-13.21,16.572-13.21     c7.953,0,14.771,5.436,16.572,13.21c0.623,2.705,2.526,4.941,5.103,5.982c2.569,1.041,5.495,0.768,7.834-0.734     c5.555-3.584,13.158,0.802,13.158,7.142C494.933,491.102,491.102,494.933,486.4,494.933z"/><path d="M281.6,119.467h34.133c4.71,0,8.533-3.823,8.533-8.533v-51.2c0-4.71-3.823-8.533-8.533-8.533H281.6     c-4.71,0-8.533,3.823-8.533,8.533v51.2C273.067,115.644,276.89,119.467,281.6,119.467z M290.133,68.267H307.2V102.4h-17.067     V68.267z"/><path d="M273.067,315.733c0,4.71,3.823,8.533,8.533,8.533h34.133c4.71,0,8.533-3.823,8.533-8.533v-51.2     c0-4.71-3.823-8.533-8.533-8.533H281.6c-4.71,0-8.533,3.823-8.533,8.533V315.733z M290.133,273.067H307.2V307.2h-17.067V273.067z     "/><path d="M196.267,119.467H230.4c4.71,0,8.533-3.823,8.533-8.533v-51.2c0-4.71-3.823-8.533-8.533-8.533h-34.133     c-4.71,0-8.533,3.823-8.533,8.533v51.2C187.733,115.644,191.556,119.467,196.267,119.467z M204.8,68.267h17.067V102.4H204.8     V68.267z"/><path d="M249.941,412.075c-1.536,1.621-2.475,3.84-2.475,6.059c0,2.219,0.939,4.437,2.475,6.059     c1.621,1.536,3.84,2.475,6.059,2.475c2.219,0,4.437-0.939,6.059-2.475c1.536-1.621,2.475-3.84,2.475-6.059     c0-2.219-0.939-4.437-2.475-6.059C258.816,408.917,253.184,408.917,249.941,412.075z"/><path d="M187.733,315.733c0,4.71,3.823,8.533,8.533,8.533H230.4c4.71,0,8.533-3.823,8.533-8.533v-51.2     c0-4.71-3.823-8.533-8.533-8.533h-34.133c-4.71,0-8.533,3.823-8.533,8.533V315.733z M204.8,273.067h17.067V307.2H204.8V273.067z"/><path d="M170.667,366.933c0,4.71,3.823,8.533,8.533,8.533h25.6v76.8c0,4.71,3.823,8.533,8.533,8.533     c4.71,0,8.533-3.823,8.533-8.533v-76.8h68.267v76.8c0,4.71,3.823,8.533,8.533,8.533s8.533-3.823,8.533-8.533v-76.8h25.6     c4.71,0,8.533-3.823,8.533-8.533s-3.823-8.533-8.533-8.533H179.2C174.49,358.4,170.667,362.223,170.667,366.933z"/><path d="M409.6,315.733c0,4.71,3.823,8.533,8.533,8.533h34.133c4.71,0,8.533-3.823,8.533-8.533v-51.2     c0-4.71-3.823-8.533-8.533-8.533h-34.133c-4.71,0-8.533,3.823-8.533,8.533V315.733z M426.667,273.067h17.067V307.2h-17.067     V273.067z"/><path d="M366.933,0H145.067c-4.71,0-8.533,3.823-8.533,8.533v443.733c0,4.71,3.823,8.533,8.533,8.533     c4.71,0,8.533-3.823,8.533-8.533v-435.2h204.8v435.2c0,4.71,3.823,8.533,8.533,8.533s8.533-3.823,8.533-8.533V8.533     C375.467,3.823,371.644,0,366.933,0z"/></g><g transform="matrix(0.09132886017728384 0.011070165043412817 -0.011070165043412817 0.09132886017728384 203.43542576431986 264.7785714271359)" id="L1_5"><path d="M74.664,85.179c-17.673,0-32,14.327-32,32v85.333h21.333v-85.333c0-5.891,4.776-10.667,10.667-10.667h256V85.179H74.664z"/><path d="M74.664,405.179c-5.891,0-10.667-4.776-10.667-10.667V287.845H42.664v106.667c0,17.673,14.327,32,32,32h106.667v-21.333    H74.664z"/><path d="M338.206,432.688L79.155,173.637c-4.165-4.164-10.917-4.164-15.083,0L3.123,234.587c-4.164,4.165-4.164,10.917,0,15.083    L262.174,508.72c2,2.001,4.713,3.125,7.541,3.125c2.829-0.001,5.541-1.125,7.541-3.125l60.949-60.949    C342.37,443.605,342.37,436.853,338.206,432.688z M269.715,486.096L25.747,242.128l45.867-45.867L315.582,440.23L269.715,486.096z    "/><path d="M469.331,405.179h-160v21.333h117.333v53.333c0,5.891,4.776,10.667,10.667,10.667h32    c23.564,0,42.667-19.102,42.667-42.667C511.998,424.281,492.895,405.179,469.331,405.179z M469.331,469.179h-21.333v-42.667    h21.333c11.782,0,21.333,9.551,21.333,21.333C490.664,459.628,481.113,469.179,469.331,469.179z"/><path d="M469.331,85.179h-53.333v21.333h53.333c11.782,0,21.333,9.551,21.333,21.333v320h21.333v-320    C511.998,104.281,492.895,85.179,469.331,85.179z"/><rect x="164px" y="314px" width="45px" height="21px" transform="matrix(0.7071 -0.7071 0.7071 0.7071 -175.2621 227.2397)"/><rect x="121px" y="271px" width="45px" height="21px" transform="matrix(0.7071 -0.7071 0.7071 0.7071 -157.5885 184.5736)"/><rect x="206px" y="357px" width="45px" height="21px" transform="matrix(0.7071 -0.7071 0.7071 0.7071 -192.9419 269.8904)"/><rect x="249px" y="399px" width="45px" height="21px" transform="matrix(0.7071 -0.7071 0.7071 0.7071 -210.6241 312.5771)"/><rect x="78px" y="229px" width="45px" height="21px" transform="matrix(0.7071 -0.7071 0.7071 0.7071 -139.9243 141.885)"/><path d="M460.094,23.824L445.352,9.083c-12.473-11.907-32.103-11.907-44.576,0L238.579,171.28c-4.164,4.165-4.164,10.917,0,15.083    l44.235,44.235c1.995,2.008,4.711,3.133,7.541,3.125c2.829-0.001,5.541-1.125,7.541-3.125L460.094,68.4    c0.005-0.005,0.01-0.01,0.015-0.015C472.41,56.076,472.403,36.125,460.094,23.824z M445.022,53.307L290.355,207.973    l-29.152-29.152L415.87,24.165c4.028-3.849,10.372-3.849,14.4,0l14.752,14.731c0.001,0.002,0.003,0.003,0.005,0.005    C449.003,42.88,449.001,49.33,445.022,53.307z"/><path d="M286.931,212.944l-46.037,15.371l15.371-46.112l-20.267-6.752l-22.123,66.357c-0.362,1.088-0.547,2.227-0.547,3.373    c0.001,5.891,4.778,10.666,10.669,10.664c1.129,0.004,2.252-0.169,3.328-0.512l66.357-22.123L286.931,212.944z"/><rect x="390px" y="36px" width="21px" height="62px" transform="matrix(0.7071 -0.7071 0.7071 0.7071 69.1923 303.4905)"/><rect x="223px" y="234px" width="160px" height="21px"/><rect x="405px" y="234px" width="21px" height="21px"/><rect x="447px" y="234px" width="21px" height="21px"/></g><g transform="matrix(0.12499909847974777 0 0 0.12499909847974777 294 64)" id="L1_6"><path d="m136 272h16v16h-16zm0 0"/><path d="m168 272h16v16h-16zm0 0"/><path d="m200 272h16v16h-16zm0 0"/><path d="m136 304h16v16h-16zm0 0"/><path d="m168 304h16v16h-16zm0 0"/><path d="m200 304h16v16h-16zm0 0"/><path d="m232 304h16v16h-16zm0 0"/><path d="m264 304h16v16h-16zm0 0"/><path d="m136 336h16v16h-16zm0 0"/><path d="m168 336h16v16h-16zm0 0"/><path d="m200 336h16v16h-16zm0 0"/><path d="m232 336h16v16h-16zm0 0"/><path d="m264 336h16v16h-16zm0 0"/><path d="m136 368h16v16h-16zm0 0"/><path d="m168 368h16v16h-16zm0 0"/><path d="m200 368h16v16h-16zm0 0"/><path d="m232 368h16v16h-16zm0 0"/><path d="m264 368h16v16h-16zm0 0"/><path d="m136 400h16v16h-16zm0 0"/><path d="m168 400h16v16h-16zm0 0"/><path d="m200 400h16v16h-16zm0 0"/><path d="m232 400h16v16h-16zm0 0"/><path d="m264 400h16v16h-16zm0 0"/><path d="m136 432h16v16h-16zm0 0"/><path d="m168 432h16v16h-16zm0 0"/><path d="m200 432h16v16h-16zm0 0"/><path d="m232 432h16v16h-16zm0 0"/><path d="m264 432h16v16h-16zm0 0"/><path d="m472 24h-56v-16c0-4.417969-3.582031-8-8-8h-80c-4.417969 0-8 3.582031-8 8v16h-312c-4.417969 0-8 3.582031-8 8v32c0 4.421875 3.582031 8 8 8h24v152c0 4.421875 3.582031 8 8 8s8 3.582031 8 8c0 4.421875-3.582031 8-8 8s-8-3.578125-8-8h-16c.023438 5.855469 2.199219 11.5 6.121094 15.851562l-20.519532 27.351563.101563.078125c-1.070313 1.34375-1.6679688 3.003906-1.703125 4.71875v32c0 2.125.84375 4.15625 2.34375 5.65625l16 16c1.5 1.5 3.535156 2.34375 5.65625 2.34375h32c2.121094 0 4.15625-.84375 5.65625-2.34375l16-16c1.5-1.5 2.34375-3.53125 2.34375-5.65625v-32c-.035156-1.714844-.632812-3.375-1.703125-4.71875l.101563-.078125-20.519532-27.351563c5.34375-5.9375 7.359375-14.15625 5.371094-21.890624-1.984375-7.734376-7.710938-13.960938-15.25-16.589844v-145.371094h272v8c0 4.421875 3.582031 8 8 8h16v376h-32v-320h-16v32h-48v-16h-16v16h-48v-8h-16v8h-48v-24h104v-16h-104v-32h-16v360h-12.6875l-37.65625-37.652344c-3.125-3.125-8.1875-3.125-11.3125 0l-37.65625 37.652344h-4.6875v16h480v-16h-6.238281c5.628906-6.144531 7.628906-14.792969 5.269531-22.789062-2.355469-7.992188-8.726562-14.171876-16.792969-16.28125 4.066407-10.027344.925781-21.53125-7.675781-28.097657-8.597656-6.566406-20.527344-6.566406-29.125 0-8.601562 6.566407-11.742188 18.070313-7.675781 28.097657-8.066407 2.109374-14.4375 8.289062-16.792969 16.28125-2.359375 7.996093-.359375 16.644531 5.269531 22.789062h-14.238281v-376h16c4.417969 0 8-3.578125 8-8v-8h56c4.417969 0 8-3.578125 8-8v-32c0-4.417969-3.582031-8-8-8zm-428 240 12 16h-32l12-16zm20 52.691406-11.3125 11.308594h-25.375l-11.3125-11.308594v-20.691406h48zm373.601562-276.691406-21.601562 14.402344v-14.402344zm-101.601562-24h32v32h-32zm-216 25.601562 21.601562 14.398438h-43.203124zm-48 12.800782-21.601562-14.402344h43.203124zm74.398438-14.402344h43.203124l-21.601562 14.402344zm69.601562 1.601562 21.601562 14.398438h-43.203124zm26.398438-1.601562h43.203124l-21.601562 14.402344zm-226.398438 0h5.601562l24 16h-29.601562zm274.398438 16 24-16h5.601562v16zm85.601562 381.601562-14.398438-21.601562 14.398438-21.597656zm0-192-14.398438-21.601562 14.398438-21.597656zm-16 4.800782 14.398438 21.597656-14.398438 21.601562zm0-52.800782v-43.199218l14.398438 21.597656zm0 148.800782 14.398438 21.597656-14.398438 21.601562zm16-4.847656-14.398438-21.554688 14.398438-21.597656zm-14.398438-213.554688 14.398438-21.597656v43.199218zm-1.601562-26.398438v-13.601562h9.054688zm-64 90.398438v80h-48v-80zm-64 0v68.800781l-18.398438-18.183593c-1.492187-1.472657-3.503906-2.304688-5.601562-2.3125h-24v-48.304688zm-64 0v13.335938h-48v-13.335938zm-120 251.3125 20.6875 20.6875h-41.375zm72 20.6875v-242.664062h48v27c0 4.421874 3.582031 8 8 8h28.710938l29.6875 29.355468c1.492187 1.472656 3.503906 2.304688 5.601562 2.308594h56v176zm240-21.597656 14.398438 21.597656h-14.398438zm96 13.597656c-4.417969 0-8-3.578125-8-8 0-4.417969 3.582031-8 8-8s8 3.582031 8 8c0 4.421875-3.582031 8-8 8zm-16-48c4.417969 0 8 3.582031 8 8 0 4.421875-3.582031 8-8 8s-8-3.578125-8-8c0-4.417969 3.582031-8 8-8zm-16 32c4.417969 0 8 3.582031 8 8 0 4.421875-3.582031 8-8 8s-8-3.578125-8-8c0-4.417969 3.582031-8 8-8zm-24-368h-64v-8h40c4.417969 0 8-3.578125 8-8v-40h16zm42.398438-16 21.601562-14.398438v14.398438zm0 0"/></g><g transform="matrix(0.9375 0 0 0.9375 26 197)" id="L1_7"><path d="M63,15h-4V9H31V5h-8v4h-2V5h-8v4h-2.5L7,13.667V15H3v6h4v8.382l-6,3V49h6v2h4.059c0.499,4.493,4.316,8,8.941,8   s8.442-3.507,8.941-8h8.118c0.499,4.493,4.316,8,8.941,8s8.442-3.507,8.941-8H59V21h4V15z M25,7h4v2h-4V7z M15,7h4v2h-4V7z M5,19   v-2h2v2H5z M3,47V33.618l4-2V47H3z M20,57c-3.519,0-6.432-2.613-6.92-6h2.021c0.465,2.279,2.484,4,4.899,4s4.434-1.721,4.899-4   h2.021C26.432,54.387,23.519,57,20,57z M17.184,51h5.631c-0.414,1.161-1.514,2-2.816,2S17.598,52.161,17.184,51z M46,57   c-3.519,0-6.432-2.613-6.92-6h2.021c0.465,2.279,2.484,4,4.899,4s4.434-1.721,4.899-4h2.021C52.432,54.387,49.519,57,46,57z    M43.184,51h5.631c-0.414,1.161-1.514,2-2.816,2S43.598,52.161,43.184,51z M57,49H9V14.333L11.5,11H57V49z M61,19h-2v-2h2V19z"/><path d="M55,13H27v18h28V13z M53,21H43v-6h10V21z M29,29V15h12v8h12v6H29z"/><path d="M35,17c-2.206,0-4,1.794-4,4s1.794,4,4,4s4-1.794,4-4S37.206,17,35,17z M35,23c-1.103,0-2-0.897-2-2s0.897-2,2-2   s2,0.897,2,2S36.103,23,35,23z"/><rect x="45px" y="17px" width="2px" height="2px"/><rect x="49px" y="17px" width="2px" height="2px"/><rect x="49px" y="25px" width="2px" height="2px"/><rect x="45px" y="25px" width="2px" height="2px"/><rect x="41px" y="25px" width="2px" height="2px"/><path d="M15.488,28.372c-0.202,0.607-0.099,1.28,0.275,1.799C16.139,30.69,16.744,31,17.384,31c0.761,0,1.445-0.423,1.786-1.104   L24.618,19h-4.23l2-6h-7.132l-3.6,12h4.956L15.488,28.372z M14.344,23l2.4-8h2.868l-2,6h3.771l-3.997,8.004L19.388,23H14.344z"/><path d="M38,33H14c-1.654,0-3,1.346-3,3v8c0,1.654,1.346,3,3,3h24c1.654,0,3-1.346,3-3v-8C41,34.346,39.654,33,38,33z M38,45H14   c-0.552,0-1-0.449-1-1v-8c0-0.551,0.448-1,1-1h24c0.552,0,1,0.449,1,1v1h-3c-1.654,0-3,1.346-3,3s1.346,3,3,3h3v1   C39,44.551,38.552,45,38,45z M39,39v2h-3c-0.552,0-1-0.449-1-1s0.448-1,1-1H39z"/><path d="M45,47h10V33H45V47z M47,35h6v10h-6V35z"/></g><g transform="matrix(0.12588827801011565 0.014638171553526078 -0.014638171553526078 0.12588827801011565 209.5199795515757 22.02523036036952)" id="L1_8"><path d="M230.4,200.533H76.8c-9.422,0.009-17.057,7.645-17.067,17.067H51.2c-9.422,0.009-17.057,7.645-17.067,17.067v17.067     c0.009,9.422,7.645,17.057,17.067,17.067h8.533V320H51.2c-9.422,0.009-17.057,7.645-17.067,17.067v17.067     c0.009,9.422,7.645,17.057,17.067,17.067h8.533c0.009,9.422,7.645,17.057,17.067,17.067h153.6     c9.422-0.009,17.057-7.645,17.067-17.067V217.6C247.457,208.178,239.822,200.543,230.4,200.533z M59.733,354.133H51.2v-17.067     h8.533V354.133z M59.733,251.733H51.2v-17.067h8.533V251.733z M76.8,371.2V217.6h153.6l0.012,153.6H76.8z"/><path d="M136.533,311.467H102.4c-4.713,0-8.533,3.82-8.533,8.533s3.82,8.533,8.533,8.533h34.133c4.713,0,8.533-3.82,8.533-8.533     S141.246,311.467,136.533,311.467z"/><path d="M136.533,337.067H102.4c-4.713,0-8.533,3.821-8.533,8.533c0,4.713,3.82,8.533,8.533,8.533h34.133     c4.713,0,8.533-3.821,8.533-8.533C145.067,340.887,141.246,337.067,136.533,337.067z"/><path d="M204.8,277.333c-4.713,0-8.533,3.821-8.533,8.533v17.067c0,4.713,3.82,8.533,8.533,8.533s8.533-3.82,8.533-8.533v-17.067     C213.333,281.154,209.513,277.333,204.8,277.333z"/><path d="M409.6,183.467h-128c-9.422,0.009-17.057,7.645-17.067,17.067V268.8c0.009,9.422,7.645,17.057,17.067,17.067h128     c9.422-0.009,17.057-7.645,17.067-17.067v-68.267C426.657,191.112,419.022,183.476,409.6,183.467z M281.6,268.8v-68.267h128     l0.012,68.267H281.6z"/><path d="M409.6,302.933h-128c-9.422,0.009-17.057,7.645-17.067,17.067v68.267c0.009,9.422,7.645,17.057,17.067,17.067h128     c9.422-0.009,17.057-7.645,17.067-17.067V320C426.657,310.578,419.022,302.943,409.6,302.933z M281.6,388.267V320h128     l0.012,68.267H281.6z"/><path d="M358.4,337.067h-25.6c-4.713,0-8.533,3.821-8.533,8.533c0,4.713,3.821,8.533,8.533,8.533h25.6     c4.713,0,8.533-3.821,8.533-8.533C366.933,340.887,363.113,337.067,358.4,337.067z"/><path d="M503.467,465.067h-59.733v-25.6c9.422-0.009,17.057-7.645,17.067-17.067V132.267h25.6c4.067,0,7.569-2.87,8.367-6.858     l17.067-85.333c0.502-2.507-0.147-5.107-1.767-7.084s-4.043-3.124-6.599-3.124h-59.733c-42.395,0.049-76.751,34.405-76.8,76.8     v42.667H281.6v-17.067c-0.037-32.974-26.759-59.696-59.733-59.733h-8.533c0-4.713-3.821-8.533-8.533-8.533H102.4     c-4.713,0-8.533,3.82-8.533,8.533H8.533C3.82,72.533,0,76.354,0,81.067V115.2c0,4.713,3.82,8.533,8.533,8.533h25.6v25.6H17.067     C7.645,149.343,0.009,156.978,0,166.4v256c0.009,9.422,7.645,17.057,17.067,17.067v25.6H8.533C3.82,465.067,0,468.887,0,473.6     c0,4.713,3.82,8.533,8.533,8.533h494.933c4.713,0,8.533-3.821,8.533-8.533C512,468.887,508.18,465.067,503.467,465.067z      M460.8,46.933h32.258L479.404,115.2H460.8V46.933z M384,106.667c0.037-32.974,26.759-59.696,59.733-59.733V115.2H384V106.667z      M384,132.267h59.733v17.067H384V132.267z M213.333,89.6h8.533c23.553,0.028,42.639,19.114,42.667,42.667v17.067h-51.2V89.6z      M110.933,81.067h85.333V115.2h-85.333V81.067z M102.4,132.267h93.867v17.067H51.2v-25.6h42.667     C93.867,128.446,97.687,132.267,102.4,132.267z M17.067,106.667V89.6h76.8v17.067H17.067z M17.067,166.4h426.667l0.013,256     H17.067V166.4z M426.667,465.067H34.133v-25.6h392.533V465.067z"/></g><g transform="matrix(0.09947524964809418 0 0 0.09947524964809418 226.5343360900879 195.5343360900879)" id="L1_9"><path d="M130,240H50c-5.522,0-10,4.477-10,10s4.478,10,10,10h80c5.522,0,10-4.477,10-10S135.522,240,130,240z"/><path d="M250,240h-80c-5.522,0-10,4.477-10,10s4.478,10,10,10h80c5.522,0,10-4.477,10-10S255.522,240,250,240z"/><path d="M110,280c-5.521,0-10,4.48-10,10c0,5.52,4.479,10,10,10c5.52,0,10-4.48,10-10C120,284.48,115.52,280,110,280z"/><path d="M70,280c-5.521,0-10,4.48-10,10c0,5.52,4.479,10,10,10c5.52,0,10-4.48,10-10C80,284.48,75.52,280,70,280z"/><path d="M230,280c-5.521,0-10,4.48-10,10c0,5.52,4.479,10,10,10c5.52,0,10-4.48,10-10C240,284.48,235.52,280,230,280z"/><path d="M190,280c-5.521,0-10,4.48-10,10c0,5.52,4.479,10,10,10c5.52,0,10-4.48,10-10C200,284.48,195.52,280,190,280z"/><path d="M130,120H50c-5.522,0-10,4.477-10,10v80c0,5.523,4.478,10,10,10h80c5.522,0,10-4.477,10-10v-80    C140,124.477,135.522,120,130,120z M120,200h-20v-18c0-5.523-4.478-10-10-10c-5.522,0-10,4.477-10,10v18H60v-60h60V200z"/><path d="M250,120h-80c-5.522,0-10,4.477-10,10v80c0,5.523,4.478,10,10,10h80c5.522,0,10-4.477,10-10v-80    C260,124.477,255.522,120,250,120z M240,200h-20v-18c0-5.523-4.478-10-10-10c-5.522,0-10,4.477-10,10v18h-20v-60h60V200z"/><path d="M340,140c-33.084,0-60,26.916-60,60v50c0,5.523,4.478,10,10,10h100c5.522,0,10-4.477,10-10v-50    C400,166.916,373.084,140,340,140z M380,240h-27.339l7.068-29.684c1.278-5.373-2.04-10.765-7.412-12.044    c-5.371-1.28-10.766,2.039-12.045,7.412L332.101,240H300v-40c0-22.056,17.944-40,40-40c22.056,0,40,17.944,40,40V240z"/><path d="M472,369.086V230c0-82.71-67.29-150-150-150H130V60h20c5.522,0,10-4.477,10-10V10c0-5.523-4.478-10-10-10H50    c-5.522,0-10,4.477-10,10v40c0,5.523,4.478,10,10,10h20v20H10C4.478,80,0,84.477,0,90c0,0,0,290.717,0,291.996    C0,391.381,9.001,392,16,392v100c0,0-5.971,0-6,0c-12.615,0-13.007,20,0,20c0,0,71.657,0,71.999,0c12.834,0,12.999-20,0.001-20h-6    V392h17.396l69.178,76.698C164.471,470.8,167.169,472,170,472h199.085c12.854,23.795,38.025,40,66.915,40    c41.906,0,76-34.093,76-76C512,407.111,495.795,381.939,472,369.086z M60,40V20h80v20H60z M110,60v20H90V60H110z M56,492H36V392    h20V492z M174.447,452L174.447,452l-54.118-60h45.528l37.071,37.071c1.876,1.875,4.419,2.929,7.071,2.929h150.106    c-0.069,1.325-0.106,2.658-0.106,4c0,5.489,0.599,10.838,1.709,16H174.447z M363.906,412h-89.348l-62.608-72h56.13    c5.51,0,10-4.49,10-10s-4.49-10-10-10c0,0-77.874,0-78.08,0c-8.442,0-13.07,10.2-7.55,16.56l65.6,75.44h-33.908l-37.071-37.071    C175.195,373.054,172.652,372,170,372H20V100h302c71.683,0,130,58.318,130,130v90c0,0-103.741,0-103.92,0    c-12.288,0-13.137,20,0,20H452v21.709c-5.162-1.111-10.511-1.709-16-1.709C402.48,360,373.979,381.823,363.906,412z M436,492    c-30.879,0-56-25.122-56-56s25.121-56,56-56c30.879,0,56,25.122,56,56S466.879,492,436,492z"/><path d="M436,406c-16.542,0-30,13.458-30,30s13.458,30,30,30s30-13.458,30-30S452.542,406,436,406z M436,446    c-5.514,0-10-4.486-10-10c0-5.514,4.486-10,10-10c5.514,0,10,4.486,10,10C446,441.514,441.514,446,436,446z"/><path d="M308.08,320c-5.511,0-10,4.49-10,10s4.489,10,10,10c5.52,0,10-4.49,10-10S313.6,320,308.08,320z"/></g><g transform="matrix(0.06480846554040909 0 0 0.06480846554040909 234.76186537303045 327.4090328216553)" id="L1_10"><path d="m243.644531 100.941406c-86.054687 0-156.066406 69.558594-156.066406 155.058594s70.011719 155.058594 156.066406 155.058594c86.058594 0 156.066407-69.558594 156.066407-155.058594s-70.007813-155.058594-156.066407-155.058594zm0 279.910156c-69.398437 0-125.859375-56.007812-125.859375-124.851562s56.460938-124.851562 125.859375-124.851562c69.398438 0 125.859375 56.007812 125.859375 124.851562s-56.460937 124.851562-125.859375 124.851562zm0 0"/><path d="m184.480469 183.824219c-6.785157.890625-12.121094 6.226562-13.011719 13.007812-.355469 2.710938-8.285156 66.753907 28.152344 103.191407 25.015625 25.015624 63.046875 29.117187 85.304687 29.117187 10.160157 0 17.039063-.851563 17.886719-.964844 6.78125-.890625 12.121094-6.226562 13.007812-13.011719.359376-2.707031 8.285157-66.75-28.152343-103.1875s-100.480469-28.507812-103.1875-28.152343zm102.082031 115.089843c-17.019531.203126-47.550781-2.21875-65.582031-20.25-18.035157-18.035156-20.457031-48.589843-20.25-65.578124 16.996093-.207032 47.546875 2.21875 65.578125 20.25 18.035156 18.035156 20.457031 48.589843 20.253906 65.578124zm0 0"/><path d="m479.734375 328.871094-34.804687-20.09375c4.496093-17.175782 6.769531-34.875 6.769531-52.777344s-2.273438-35.601562-6.769531-52.777344l34.804687-20.09375c7.226563-4.171875 9.699219-13.410156 5.53125-20.632812l-39.835937-68.992188c-2-3.46875-5.300782-6-9.167969-7.035156-3.867188-1.039062-7.992188-.496094-11.460938 1.507812l-34.84375 20.117188c-25.570312-25.363281-56.78125-43.398438-91.375-52.808594v-40.183594c0-8.339843-6.761719-15.101562-15.105469-15.101562h-79.664062c-8.339844 0-15.105469 6.761719-15.105469 15.101562v40.183594c-34.589843 9.40625-65.800781 27.445313-91.375 52.804688l-34.839843-20.113282c-3.472657-2.003906-7.597657-2.546874-11.460938-1.511718-3.871094 1.039062-7.167969 3.570312-9.171875 7.039062l-39.832031 68.992188c-4.171875 7.222656-1.699219 16.460937 5.527344 20.628906l34.808593 20.097656c-4.496093 17.175782-6.769531 34.875-6.769531 52.777344s2.273438 35.601562 6.769531 52.773438l-34.808593 20.097656c-7.226563 4.171875-9.699219 13.40625-5.527344 20.632812l39.832031 68.992188c2.003906 3.46875 5.304687 6 9.171875 7.035156 3.867188 1.039062 7.992188.496094 11.460938-1.507812l34.839843-20.117188c25.574219 25.363281 56.785157 43.398438 91.378907 52.808594v40.183594c0 8.339843 6.761718 15.101562 15.101562 15.101562h79.667969c8.339843 0 15.101562-6.761719 15.101562-15.101562v-40.183594c34.59375-9.40625 65.804688-27.445313 91.375-52.804688l34.84375 20.113282c3.46875 2.003906 7.59375 2.546874 11.460938 1.511718 3.867187-1.039062 7.167969-3.570312 9.171875-7.039062l39.832031-68.992188c4.167969-7.222656 1.695313-16.460937-5.53125-20.632812zm-52.910156 61.441406-32.054688-18.503906c-6.179687-3.566406-14.015625-2.324219-18.785156 2.988281-25.476563 28.359375-58.539063 47.460937-95.609375 55.242187-6.992188 1.46875-12 7.636719-12 14.78125v36.972657h-49.457031v-36.972657c0-7.144531-5.011719-13.3125-12-14.78125-37.074219-7.78125-70.132813-26.882812-95.609375-55.242187-4.769532-5.3125-12.605469-6.558594-18.789063-2.988281l-32.050781 18.503906-24.730469-42.832031 32.011719-18.480469c6.179688-3.570312 9.019531-10.980469 6.804688-17.765625-5.808594-17.796875-8.753907-36.378906-8.753907-55.234375 0-18.851562 2.945313-37.4375 8.753907-55.230469 2.214843-6.785156-.625-14.195312-6.804688-17.765625l-32.011719-18.480468 24.730469-42.835938 32.050781 18.503906c6.183594 3.570313 14.019531 2.324219 18.789063-2.984375 25.476562-28.359375 58.535156-47.464843 95.609375-55.246093 6.988281-1.46875 12-7.636719 12-14.78125v-36.972657h49.457031v36.972657c0 7.144531 5.007812 13.3125 12 14.78125 37.070312 7.78125 70.132812 26.882812 95.609375 55.242187 4.769531 5.3125 12.605469 6.558594 18.785156 2.988281l32.054688-18.503906 24.730469 42.832031-32.011719 18.480469c-6.183594 3.570312-9.023438 10.980469-6.808594 17.765625 5.8125 17.796875 8.753906 36.378906 8.753906 55.234375 0 18.851562-2.945312 37.4375-8.753906 55.230469-2.214844 6.785156.625 14.195312 6.808594 17.765625l32.011719 18.480468zm0 0"/></g><path d="M400,240c4.418,0,8-3.582,8-8V120h64c4.418,0,8-3.582,8-8V80c-0.041-0.297-0.1-0.59-0.176-0.88    c-0.051-0.579-0.166-1.151-0.344-1.704c-0.148-0.407-0.33-0.8-0.544-1.176c-0.721-1.364-1.836-2.479-3.2-3.2    c-0.401-0.224-0.821-0.411-1.256-0.56c-0.232-0.08-0.416-0.232-0.656-0.288l-304-72C169.226,0.058,168.614-0.006,168,0h-32    c-0.946,0.021-1.881,0.21-2.76,0.56c-0.216,0.08-0.416,0.152-0.624,0.248s-0.368,0.12-0.544,0.216l-128,72    c-0.395,0.264-0.764,0.564-1.104,0.896c-0.263,0.187-0.514,0.39-0.752,0.608c-0.67,0.682-1.211,1.479-1.6,2.352v0.096    c-0.349,0.879-0.539,1.814-0.56,2.76C0.056,79.833,0,79.912,0,80.008v32c0,4.418,3.582,8,8,8h112v148.68l-29.656,29.656    c-1.5,1.5-2.344,3.534-2.344,5.656v128H72v48h160v-48h-16V304c0-2.122-0.844-4.156-2.344-5.656L184,268.688V120h160v112    c0,4.418,3.582,8,8,8h16v24c0,4.418,3.582,8,8,8c8.837,0,16,7.163,16,16s-7.163,16-16,16s-16-7.163-16-16v-8h-16v8    c0.041,11.679,6.461,22.401,16.736,27.952L300.688,376H280c-4.418,0-8,3.582-8,8v72c0,4.418,3.582,8,8,8h192c4.418,0,8-3.582,8-8    v-72c0-4.418-3.582-8-8-8h-20.688l-60.048-60.048c15.495-8.352,21.285-27.683,12.934-43.178    c-4.231-7.849-11.556-13.567-20.198-15.766V240H400z M408,88h56v16h-56V88z M464,392v56H288v-56H464z M428.688,376H323.312    L376,323.313L428.688,376z M392,192h-32v-72h32V192z M392,104h-32V88h32V104z M144,16h16v56h-16V16z M136,88h32v12.688    L164.688,104H136V88z M168,123.312v57.376L139.312,152L168,123.312z M136,120h12.688L136,132.688V120z M136,171.313L164.688,200    L136,228.688V171.313z M168,219.313V272v4.688L139.312,248L168,219.313z M136,272v-4.688L164.688,296L136,324.688V272z     M168,315.313v57.376L139.312,344L168,315.313z M136,363.313L164.688,392L136,420.688V363.313z M168,411.313V432h-20.688    L168,411.313z M128,21.68V72H38.536L128,21.68z M16,104V88h104v16H16z M104,307.313l16-16V432h-16V307.313z M216,448v16H88v-16    H216z M200,307.313V432h-16V291.313L200,307.313z M344,104H184V88h160V104z M176,72V18.112L403.512,72H400H176z M360,224v-16h32    v16H360z" transform="matrix(0.125 0 0 0.125 109 239)" id="L1_11"/><g transform="matrix(0.0860760435461998 0 0 0.0860760435461998 27.961027059704065 92.85562345539591)" id="L1_12"><path d="m234.671875 445.320312c-74.667969 42.664063-158.550781 20.566407-174.25 15.617188-15.703125-4.953125-20.566406-21.335938 7.167969-29.1875 1.535156-.425781 3.070312-.851562 4.609375-1.363281 29.4375 6.996093 99.242187 17.238281 162.472656-18.859375 32.425781-18.601563 52.652344-31.742188 62.550781-43.007813.167969.511719.253906 1.023438.425782 1.449219 1.28125 7.085938 2.558593 37.890625-62.976563 75.351562zm0 0" fill="#37474f"/><path d="m396.121094 229.851562c-7.355469 26.757813-17.363282 52.710938-29.863282 77.484376 0 0-17.324218-28.929688-3.074218-78.082032 14.082031-49.066406 2.046875-144.382812-20.820313-164.265625-2.886719-2.464843-6.261719-4.292969-9.898437-5.375 15.871094-2.816406 32.9375-2.902343 43.007812 5.886719 22.785156 19.96875 34.816406 115.285156 20.648438 164.351562zm0 0" fill="#37474f"/><path d="m372.316406 357.9375c-8.164062 11.097656-19.5 19.460938-32.511718 23.980469-2.953126.976562-5.976563 1.71875-9.046876 2.21875-12.972656 1.875-27.820312-.941407-33.109374-14.167969-.171876-.425781-.257813-.9375-.425782-1.449219-5.617187 5.847657-11.886718 11.03125-18.6875 15.445313-12.972656 9.128906-30.636718 19.796875-50.433594 31.148437-11.519531 6.597657-23.742187 11.894531-36.4375 15.785157-50.003906 15.1875-95.742187 5.121093-119.464843-.511719 26.792969-8.535157 57-26.453125 40.191406-28.5-7.59375-.941407-9.386719-3.585938-6.65625-6.574219 9.050781-6.1875 19.753906-9.519531 30.71875-9.554688.683594-.085937 1.449219-.085937 2.21875-.171874 22.699219-1.621094 50.433594-36.609376 66.730469-56.660157 3.449218-4.578125 7.242187-8.886719 11.351562-12.886719 0-.046874.035156-.085937.082032-.085937-1.191407-.9375-2.472657-1.789063-3.753907-2.644531-9.984375-6.742188-21.332031-11.09375-30.71875-18.433594-10.367187-8.164062-17.082031-20.09375-18.6875-33.191406-1.023437-7.910156-.175781-15.949219 2.472657-23.46875 3.242187-8.875 11.09375-15.699219 11.949218-25.429688.453125-4.023437-1.910156-7.835937-5.71875-9.214844-.339844-.085937-.597656-.257812-.9375-.339843-.683594-4.4375-58.882812 13.992187-56.917968 8.789062.738281-5.886719.964843-11.824219.683593-17.75 7.890625-3.207031 15.585938-6.882812 23.039063-11.007812 19.054687-10.3125 41.054687-13.832031 62.378906-9.984375 5.558594 3.503906 9.839844 8.714844 12.203125 14.847656 7.421875 19.371094-11.4375 37.460938-16.8125 54.871094-4.582031 14.351562 1.6875 29.9375 14.933594 37.117187 6.921875 3.1875 14.484375 4.734375 22.101562 4.523438 7.710938-.0625 15.378907-1.183594 22.785157-3.328125h.085937c-1-6.046875-.738281-12.234375.765625-18.175782 4.203125-16.3125 12.25-31.382812 23.46875-43.945312 31.316406-37.71875 12.796875-49.066406 6.398438-60.503906-6.398438-11.433594-1.621094-19.882813 11.265624-14.933594 12.714844 4.949219 2.644532-58.707031-3.757812-71.847656-.09375-.238282-.207031-.464844-.339844-.683594 12.476563-5.199219 25.460938-9.085938 38.742188-11.605469 3.636718 1.082031 7.011718 2.910157 9.898437 5.375 22.867188 19.882813 33.363281 98.304688 19.285157 147.457031-8.1875 31.359376-6.582032 64.472657 4.609374 94.890626 5.699219 2.152343 10.671876 5.882812 14.335938 10.75 8.445312 11.949218-.855469 29.699218-8.277344 39.851562zm0 0" fill="#cfd8dc"/><path d="m369.910156 360.96875c-5.207031 6.996094-31.644531 18.558594-39.152344 23.167969-4.179687 2.558593-28.457031-7.492188-33.152343-5.871094-12.542969 4.265625-10.539063 16.707031-19.070313 5.699219-1.359375-1.640625-2.453125-3.484375-3.246094-5.460938-.167968-.425781-.253906-.9375-.425781-1.449218-9.898437 11.261718-36.691406 27.988281-69.117187 46.589843-4.695313 2.644531-9.386719 5.121094-14.082032 7.253907-50.003906 15.1875-95.742187 5.121093-119.464843-.511719 26.792969-8.535157 57-26.453125 40.191406-28.5-7.59375-.941407-9.386719-3.585938-6.65625-6.574219 3.242187-.511719 6.824219-.9375 10.582031-1.191406 7.335938-.949219 14.285156-3.835938 20.136719-8.363282l.367187-.113281c23.039063.25 51.839844-36.121093 68.582032-56.71875 3.476562-4.609375 7.296875-8.945312 11.433594-12.972656-1.191407-.9375-2.472657-1.789063-3.753907-2.644531-9.984375-6.742188-21.332031-11.09375-30.71875-18.433594-10.367187-8.164062-17.082031-20.09375-18.6875-33.191406-1.023437-7.910156-.175781-15.949219 2.472657-23.46875 3.242187-8.875 11.09375-15.699219 11.949218-25.429688.453125-4.023437-1.910156-7.835937-5.71875-9.214844-.339844-.085937-.597656-.257812-.9375-.339843-.683594-4.4375-58.882812 13.992187-56.917968 8.789062.738281-5.886719.964843-11.824219.683593-17.75 7.890625-3.207031 15.585938-6.882812 23.039063-11.007812 12.117187-3.242188 15.46875-18.621094 29.804687-15.359375 5.496094 2.496094 10.382813 6.167968 14.3125 10.75 4.390625 4.226562 8.085938 9.121094 10.9375 14.507812 6.96875 12.714844 8.609375 27.675782 4.566407 41.597656-4.265626 13.996094-10.894532 33.179688 2.671874 40.007813 12.800782 6.398437 18.433594 19.128906 33.023438 15.035156-5.496094-5.378906-.511719-2.5625-.511719-5.207031 7.738281-.070312 15.433594-1.191406 22.871094-3.328125-1-6.046875-.738281-12.234375.765625-18.175781 4.203125-16.3125 12.25-31.382813 23.46875-43.945313 31.316406-37.71875 12.796875-49.066406 6.398438-60.503906-6.398438-11.433594-1.621094-19.882813 11.265624-14.933594 12.714844 4.953125 2.644532-58.707031-3.757812-71.847656 5.28125-1.53125 10.636719-2.785156 16.042969-3.753906 3.640625 1.078125 7.011719 2.910156 9.898437 5.375 22.871094 19.882812 33.367188 98.304687 19.285156 147.457031-7.914062 30.167969-6.75 62.003906 3.347657 91.519531.800781 2.15625 2.414062 3.917969 4.496093 4.90625 4.386719 2.15625 8.191407 5.339844 11.09375 9.273438 8.457032 11.929687 19.105469 24.21875 11.683594 34.332031zm0 0" fill="#ffffff"/><path d="m131.804688 479.519531c-25.023438.078125-49.929688-3.441406-73.953126-10.441406-10.296874-2.222656-17.894531-10.972656-18.644531-21.480469.09375-6.253906 3.617188-17.707031 26.054688-24.054687 12.980469-3.683594 25.4375-9.03125 37.050781-15.90625-3.898438-1.832031-6.359375-5.78125-6.28125-10.085938.308594-12.921875 22.835938-19.105469 42.035156-20.480469 18.296875-1.304687 44.824219-33.988281 59.078125-51.550781 4.328125-5.882812 9.183594-11.355469 14.503907-16.359375l.113281-.082031c.5-.425781 1.042969-.792969 1.621093-1.101563 3.914063-2.042968 8.742188-.757812 11.125 2.960938 2.386719 3.71875 1.539063 8.640625-1.953124 11.347656l-.359376.289063c-4.203124 4.328125-8.144531 8.90625-11.800781 13.707031-18.097656 22.253906-45.441406 55.988281-71.117187 57.8125-5.800782.371094-11.550782 1.292969-17.175782 2.757812 2.089844 1.816407 3.390626 4.378907 3.617188 7.140626 1.441406 18.773437-55.253906 35.839843-55.832031 35.976562-11.09375 3.15625-13.605469 7.089844-13.613281 7.894531-.007813.800781 1.902343 3.414063 6.726562 4.941407 9.324219 2.933593 93.25 27.492187 167.40625-14.910157 62.386719-35.667969 59.367188-63.375 58.8125-66.421875-.570312-3.011718.519531-6.097656 2.851562-8.082031 2.335938-1.988281 5.554688-2.570313 8.4375-1.527344 2.878907 1.042969 4.980469 3.550781 5.503907 6.570313 1.765625 9.753906 2.148437 44.664062-67.140625 84.277344-32.746094 18.109374-69.652344 27.351562-107.066406 26.808593zm0 0"/><path d="m131.589844 445.796875c-20.660156-.015625-41.246094-2.402344-61.363282-7.109375-2.964843-.703125-5.332031-2.9375-6.207031-5.855469-.871093-2.921875-.121093-6.085937 1.972657-8.304687 2.09375-2.214844 5.210937-3.148438 8.175781-2.445313 26.453125 6.300781 94.722656 17.152344 156.273437-17.96875 34.582032-19.832031 52.050782-31.789062 60.371094-41.226562 1.96875-2.441407 5.117188-3.609375 8.203125-3.035157 3.085937.570313 5.605469 2.789063 6.566406 5.777344.960938 2.988282.203125 6.261719-1.96875 8.523438-11.222656 12.800781-33.953125 27.160156-64.675781 44.773437-32.832031 18.148438-69.835938 27.410157-107.347656 26.871094zm0 0"/><path d="m323.675781 393.171875c-14.421875 1.191406-28.03125-6.839844-33.953125-20.042969-.128906-.324218-.480468-1.445312-.566406-1.792968-1.210938-4.523438 1.316406-9.207032 5.761719-10.675782 4.316406-1.417968 8.972656.914063 10.417969 5.222656.050781.152344.28125.972657.324218 1.136719 4.4375 11.144531 21.632813 10.128907 31.402344 6.824219 11.359375-3.964844 21.25-11.269531 28.382812-20.957031 6.828126-9.386719 13.132813-22.851563 8.175782-29.867188-2.714844-3.519531-6.363282-6.207031-10.53125-7.746093-2.269532-.90625-4.042969-2.746094-4.867188-5.046876-.828125-2.300781-.625-4.84375.550782-6.988281 12.175781-24.234375 21.941406-49.609375 29.15625-75.757812 13.894531-48.121094.5625-139.203125-18.082032-155.554688-13.175781-11.527343-47.238281-2.429687-65.371094 4.214844 5.679688 19.628906 12.796876 61.441406 3.273438 72.421875-3.195312 3.769531-8.457031 5.042969-13.019531 3.152344-.726563-.289063-1.472657-.515625-2.238281-.683594.359374 1.210938.859374 2.378906 1.496093 3.472656.914063 1.535156 1.914063 3.019532 2.996094 4.445313 10.402344 14.457031 18.183594 31.4375-10.242187 65.707031-26.964844 32.554688-22.664063 53.949219-22.46875 54.84375.742187 3.011719-.207032 6.1875-2.480469 8.296875-2.273438 2.105469-5.511719 2.816406-8.460938 1.851563-2.945312-.964844-5.136719-3.453126-5.722656-6.496094-1.101563-5.019532-5.019531-31.941406 25.992187-69.394532 22.398438-26.972656 16.152344-35.652343 9.546876-44.832031-1.453126-1.941406-2.796876-3.964843-4.027344-6.058593-5.1875-7.097657-5.269532-16.710938-.203125-23.894532 4.15625-4.511718 10.460937-6.367187 16.402343-4.820312.273438-19.964844-2.777343-39.835938-9.03125-58.796875-1.160156-2.097657-1.382812-4.589844-.613281-6.863281.769531-2.273438 2.460938-4.121094 4.660157-5.082032 6.542968-2.839844 64.671874-27.179687 90.777343-4.265625 27.074219 23.679688 37.109375 124.9375 23.210938 173.097657-6.941407 24.515624-15.863281 48.421874-26.675781 71.492187 3.871093 2.515625 7.242187 5.730469 9.933593 9.480469 12.433594 17.585937-1.707031 40.679687-8.371093 49.792968-9.214844 12.484376-21.984376 21.902344-36.632813 27.015626-6.089844 2.0625-12.472656 3.125-18.902344 3.148437zm0 0"/><path d="m366.230469 315.867188c-2.988281.007812-5.761719-1.5625-7.296875-4.128907-.785156-1.3125-19.0625-32.714843-3.949219-84.839843 13.839844-48.210938.433594-139.226563-18.21875-155.457032-2.011719-1.695312-4.355469-2.945312-6.878906-3.679687-3.027344-.8125-5.363281-3.222657-6.085938-6.273438-.722656-3.050781.285157-6.25 2.625-8.335937 2.339844-2.085938 5.632813-2.722656 8.582031-1.65625 4.769532 1.429687 9.183594 3.851562 12.953126 7.101562 27.085937 23.550782 37.238281 124.78125 23.390624 173.03125-12.921874 44.542969 1.59375 70.3125 2.21875 71.390625 1.546876 2.632813 1.5625 5.894531.050782 8.546875-1.515625 2.652344-4.335938 4.292969-7.390625 4.300782zm0 0"/><path d="m296.113281 78.8125c-3.199219.003906-6.132812-1.78125-7.59375-4.625-9.0625-15.195312-20.183593-29.058594-33.050781-41.199219-2.414062-2.03125-3.511719-5.226562-2.851562-8.308593.65625-3.085938 2.964843-5.554688 5.996093-6.421876 3.03125-.871093 6.292969.003907 8.484375 2.273438 14.328125 13.457031 26.65625 28.898438 36.609375 45.847656 2.148438 4.191406.496094 9.335938-3.695312 11.488282-1.203125.625-2.542969.949218-3.898438.945312zm0 0"/><path d="m317.523438 71.558594c-4.378907-.003906-8.046876-3.320313-8.484376-7.679688-1.59375-16.019531-6.964843-31.429687-15.675781-44.96875-2.378906-3.820312-1.386719-8.832031 2.269531-11.453125 3.65625-2.621093 8.722657-1.953125 11.574219 1.527344 10.441407 15.964844 16.882813 34.214844 18.773438 53.195313.464843 4.6875-2.953125 8.867187-7.640625 9.335937-.269532.03125-.542969.042969-.816406.042969zm0 0"/><path d="m340.664062 66.953125c-.445312-.003906-.890624-.035156-1.332031-.105469-2.234375-.347656-4.238281-1.574218-5.574219-3.402344-1.332031-1.828124-1.882812-4.113281-1.53125-6.351562 1.398438-15.433594-.269531-30.992188-4.898437-45.78125-1.285156-4.417969 1.167969-9.0625 5.542969-10.492188 4.375-1.429687 9.097656.867188 10.667968 5.195313 5.484376 17.355469 7.363282 35.648437 5.53125 53.757813-.664062 4.128906-4.222656 7.167968-8.40625 7.179687zm0 0"/><path d="m368.644531 69.851562c-.625.003907-1.25-.066406-1.859375-.203124-4.597656-1.023438-7.5-5.582032-6.476562-10.179688 1.523437-11.585938 1.105468-23.34375-1.238282-34.792969-.910156-4.613281 2.082032-9.09375 6.695313-10.019531s9.101563 2.058594 10.039063 6.667969c2.765624 13.769531 3.160156 27.910156 1.167968 41.8125-.851562 3.917969-4.316406 6.710937-8.328125 6.714843zm0 0"/><path d="m388.453125 96c-.886719-.003906-1.769531-.140625-2.613281-.410156-2.15625-.691406-3.949219-2.214844-4.984375-4.230469-1.03125-2.015625-1.222657-4.359375-.527344-6.511719 3.640625-15.539062 5.234375-31.488281 4.742187-47.4375-.132812-4.714844 3.578126-8.644531 8.292969-8.777344 4.710938-.132812 8.640625 3.578126 8.777344 8.289063.5625 17.890625-1.308594 35.769531-5.558594 53.15625-1.132812 3.53125-4.421875 5.925781-8.128906 5.921875zm0 0"/><path d="m49.25 451.207031c-.328125 0-.652344-.015625-.980469-.050781-18.003906-2.066406-40.875-7.960938-47.625-24.355469-1.792969-4.359375.285157-9.347656 4.644531-11.144531 4.359376-1.792969 9.347657.285156 11.144532 4.644531 2.660156 6.484375 15.605468 11.808594 33.773437 13.882813 4.507813.496094 7.839844 4.433594 7.585938 8.960937-.253907 4.527344-4.007813 8.066407-8.542969 8.054688zm0 0"/><path d="m24.921875 473.734375c-6.4375.128906-12.855469-.734375-19.027344-2.558594-4.308593-1.585937-6.585937-6.292969-5.164062-10.65625 1.421875-4.359375 6.042969-6.816406 10.453125-5.558593 14.890625 2.816406 30.25 1.800781 44.636718-2.953126 4.515626-1.359374 9.277344 1.195313 10.636719 5.707032 1.363281 4.511718-1.191406 9.273437-5.703125 10.636718-11.644531 3.40625-23.699218 5.21875-35.832031 5.382813zm0 0"/><path d="m42.671875 503.601562c-4.214844 0-7.796875-3.074218-8.4375-7.238281-.636719-4.164062 1.859375-8.171875 5.878906-9.433593 13.203125-5.5625 25.933594-12.183594 38.066407-19.808594 5.289062-3.105469 9.507812-5.554688 11.570312-6.542969 2.769531-1.523437 6.152344-1.386719 8.792969.347656s4.105469 4.785157 3.8125 7.929688c-.296875 3.144531-2.304688 5.871093-5.222657 7.082031-1.835937.851562-5.582031 3.105469-10.316406 5.878906-13.199218 8.347656-27.121094 15.488282-41.601562 21.332032-.820313.28125-1.675782.433593-2.542969.453124zm0 0"/><path d="m238.9375 341.46875c-2.058594.003906-4.046875-.742188-5.597656-2.097656-7.945313-6.847656-16.308594-13.195313-25.035156-19.011719-3.941407-2.648437-8.183594-4.933594-12.671876-7.347656-6.503906-3.273438-12.710937-7.09375-18.5625-11.425781-19.765624-15.847657-27.367187-42.449219-18.960937-66.347657 1.636719-4.066406 3.703125-7.941406 6.171875-11.5625 2.636719-3.421875 4.457031-7.398437 5.316406-11.632812-7.957031-1.902344-16.320312-1.089844-23.757812 2.3125-2.097656.640625-4.136719 1.253906-6.050782 1.777343l-6.144531 1.707032c-7.574219 2.089844-15.359375 4.265625-23.320312 5.972656l-12.160157 2.628906c-3.707031.800782-7.503906-.941406-9.308593-4.28125-1.804688-3.335937-1.191407-7.46875 1.507812-10.132812l30.191407-29.867188c11.921874-10.292968 26.0625-17.6875 41.320312-21.597656 22.050781-6.296875 50.074219 1.160156 58.964844 24.515625 6.375 16.734375-1.851563 31.574219-9.105469 44.621094-3.023437 4.980469-5.542969 10.25-7.527344 15.726562-3.410156 10.382813 1.035157 21.722657 10.589844 27.027344 12.589844 6.328125 32.257813 3.667969 46.183594-1.792969 3.59375-1.398437 4.410156-2.261718 4.574219-2.484375.804687-2.097656 2.414062-3.789062 4.472656-4.699219 2.054687-.910156 4.386718-.960937 6.484375-.148437 4.398437 1.730469 6.582031 6.679687 4.898437 11.09375-2.851562 5.832031-8 10.21875-14.207031 12.109375-16.171875 6.339844-41.609375 10.4375-60.078125 1.144531-16.929688-9.082031-25.007812-28.925781-19.234375-47.25 2.304687-6.632812 5.289063-13.011719 8.910156-19.03125 5.972657-10.765625 11.640625-20.9375 8.089844-30.265625-5.332031-14.003906-24.054687-18.277344-38.3125-14.175781-12.527344 3.042969-24.167969 8.96875-34 17.308594-.851563.851562-3.011719 3.011719-8.582031 8.53125l5.117187-1.40625 6.214844-1.707031c1.765625-.480469 3.617187-1.050782 5.546875-1.640626 10.945312-4.703124 23.160156-5.558593 34.652344-2.421874 7.320312 2.78125 11.867187 10.125 11.09375 17.921874-.988282 6.988282-3.710938 13.621094-7.910156 19.292969-1.792969 2.605469-3.320313 5.382813-4.558594 8.292969-5.835938 16.941406-.464844 35.722656 13.441406 47.019531 5.09375 3.707031 10.484375 6.988281 16.121094 9.804688 4.65625 2.5 9.46875 5.121093 14.105468 8.207031 9.316407 6.214844 18.238282 12.996094 26.714844 20.3125 2.710938 2.328125 3.679688 6.101562 2.429688 9.449219-1.25 3.347656-4.453125 5.5625-8.027344 5.550781zm0 0"/><path d="m434.675781 435.335938h-.324219c-14.507812-.554688-67.132812-40.484376-97.21875-64.222657-2.398437-1.886719-3.609374-4.90625-3.179687-7.929687.433594-3.019532 2.445313-5.578125 5.28125-6.714844 2.832031-1.132812 6.054687-.671875 8.453125 1.214844 32.425781 25.597656 71.585938 53.757812 84.609375 59.570312 6.535156-5.972656 18.398437-15.523437 28.03125-16.058594 2.269531-.15625 4.511719.609376 6.207031 2.128907 1.695313 1.519531 2.707032 3.660156 2.804688 5.933593.128906 2.265626-.648438 4.488282-2.160156 6.175782-1.507813 1.691406-3.632813 2.710937-5.894532 2.835937-7.851562 3.285157-14.875 8.265625-20.574218 14.582031-1.605469 1.589844-3.773438 2.484376-6.035157 2.484376zm0 0"/><path d="m460.804688 452.402344c-.675782 0-1.351563-.082032-2.011719-.238282-12.421875-3.203124-23.414063-10.460937-31.234375-20.625-1.691406-2.539062-1.898438-5.785156-.546875-8.519531 1.351562-2.734375 4.058593-4.542969 7.101562-4.738281 3.046875-.195312 5.960938 1.246094 7.65625 3.785156 5.414063 6.605469 12.773438 11.332032 21.03125 13.507813 4.203125 1.015625 6.980469 5.007812 6.46875 9.300781-.507812 4.289062-4.144531 7.523438-8.464843 7.527344zm0 0"/><path d="m469.339844 370.804688c-.707032 0-1.40625-.089844-2.089844-.261719l-107.734375-27.195313c-4.570313-1.15625-7.34375-5.796875-6.1875-10.371094 1.15625-4.570312 5.796875-7.339843 10.367187-6.183593l105.90625 26.742187 26.457032-4.984375c4.640625-.867187 9.109375 2.191407 9.976562 6.832031.871094 4.640626-2.1875 9.109376-6.828125 9.980469l-28.265625 5.332031c-.527344.089844-1.066406.125-1.601562.109376zm0 0"/><path d="m503.472656 392.667969c-2.730468 0-6.484375 0-39.117187-23.464844-3.828125-2.753906-4.703125-8.089844-1.949219-11.917969 2.75-3.828125 8.085938-4.703125 11.917969-1.949218 9.890625 7.382812 20.179687 14.21875 30.820312 20.480468 4.199219.949219 7.03125 4.878906 6.605469 9.164063-.421875 4.285156-3.972656 7.582031-8.277344 7.6875zm0 0"/></g><g transform="matrix(0.11311051050994476 0.017859554435107294 -0.017859554435107294 0.11311051050994476 310.1714410522386 145.53062002222813)" id="L1_13"><path d="m480 248.027344c.039062-.613282.039062-1.226563 0-1.839844.070312-.398438.070312-.804688 0-1.199219-.191406-.449219-.460938-.855469-.800781-1.203125-.199219-.484375-.5-.917968-.878907-1.277344-.300781-.242187-.621093-.457031-.960937-.640624-.515625-.4375-1.078125-.8125-1.679687-1.121094l-214.238282-80.71875c6.785156-6.125 10.628906-14.859375 10.558594-24-.011719-14.582032-9.878906-27.316406-24-30.960938v-9.039062h8c2.675781-.015625 5.167969-1.367188 6.640625-3.601563l32-48c1.9375-2.757812 1.9375-6.4375 0-9.199219l-24-32c-2.652344-3.535156-7.664063-4.25-11.199219-1.597656-3.535156 2.648438-4.253906 7.664063-1.601562 11.199219l20.398437 27.199219-26.558593 40h-23.359376l-26.558593-40 20.636719-27.199219c2.652343-3.535156 1.9375-8.550781-1.597657-11.199219-3.535156-2.652344-8.550781-1.9375-11.199219 1.597656l-24 32c-1.941406 2.761719-1.941406 6.441407 0 9.199219l32 48c1.421876 2.167969 3.808594 3.507813 6.398438 3.601563h8v16c0 4.417968 3.582031 8 8 8 8.835938 0 16 7.164062 16 16 0 8.835937-7.164062 16-16 16s-16-7.164063-16-16c0-4.417969-3.582031-8-8-8s-8 3.582031-8 8c-.070312 9.140625 3.773438 17.875 10.558594 24l-213.359375 80.558594c-.589844.328124-1.152344.703124-1.679688 1.121093-.335937.183594-.660156.398438-.960937.640625-.378906.359375-.679688.796875-.878906 1.28125-.339844.34375-.609376.753906-.800782 1.199219-.035156.398437-.035156.800781 0 1.199219-.339844.644531-.632812 1.3125-.878906 2v132.078125c0 4.417969 3.582031 8 8 8s8-3.582031 8-8v-124.078125h448v208h-448v-52.800782c0-4.417968-3.582031-8-8-8s-8 3.582032-8 8v60.800782c0 4.417968 3.582031 8 8 8h464c4.417969 0 8-3.582032 8-8zm-93.761719-8-68.878906-42.082032 111.039063 42.082032zm-334.636719 0 111.039063-42.082032-68.878906 42.082032zm188.398438-70.640625 115.601562 70.640625h-231.203124zm0 0"/><path d="m96 448.027344c4.417969 0 8-3.582032 8-8v-160c0-4.417969-3.582031-8-8-8h-32c-4.417969 0-8 3.582031-8 8v160c0 4.417968 3.582031 8 8 8zm-24-160h16v144h-16zm0 0"/><path d="m160 448.027344c4.417969 0 8-3.582032 8-8v-160c0-4.417969-3.582031-8-8-8h-32c-4.417969 0-8 3.582031-8 8v160c0 4.417968 3.582031 8 8 8s8-3.582032 8-8v-152h16v152c0 4.417968 3.582031 8 8 8zm0 0"/><path d="m192 272.027344c-4.417969 0-8 3.582031-8 8v160c0 4.417968 3.582031 8 8 8h32c4.417969 0 8-3.582032 8-8v-160c0-4.417969-3.582031-8-8-8s-8 3.582031-8 8v152h-16v-152c0-4.417969-3.582031-8-8-8zm0 0"/><path d="m288 448.027344c4.417969 0 8-3.582032 8-8v-160c0-4.417969-3.582031-8-8-8h-32c-4.417969 0-8 3.582031-8 8v160c0 4.417968 3.582031 8 8 8zm-24-160h16v144h-16zm0 0"/><path d="m352 448.027344c4.417969 0 8-3.582032 8-8v-160c0-4.417969-3.582031-8-8-8h-32c-4.417969 0-8 3.582031-8 8v160c0 4.417968 3.582031 8 8 8s8-3.582032 8-8v-152h16v152c0 4.417968 3.582031 8 8 8zm0 0"/><path d="m416 448.027344c4.417969 0 8-3.582032 8-8v-160c0-4.417969-3.582031-8-8-8h-32c-4.417969 0-8 3.582031-8 8v160c0 4.417968 3.582031 8 8 8zm-24-160h16v144h-16zm0 0"/></g><g transform="matrix(0.125 0 0 0.125 102 54)" id="L1_14"><path d="M121.08,96.108l-2.448-0.328l-2.184,1.088l-112,56L0,155.092v178.216l4.848,2.08L59.4,358.764l59.4,25.456L480,343.18    V145.052L121.08,96.108z M48,336.476l-32-13.712V164.98l32-16V336.476z M112,363.9l-48-20.568V140.98l48-24V363.9z M464,328.892    l-336,38.184v-253.88l336,45.824V328.892z"/><path d="M32,208.036c-4.418,0-8,3.582-8,8v56c0,4.418,3.582,8,8,8s8-3.582,8-8v-56C40,211.618,36.418,208.036,32,208.036z"/><path d="M88,208.036c-4.418,0-8,3.582-8,8v64c0,4.418,3.582,8,8,8s8-3.582,8-8v-64C96,211.618,92.418,208.036,88,208.036z"/><path d="M440.88,168.084l-288-32c-4.391-0.486-8.345,2.68-8.831,7.071c-0.032,0.292-0.049,0.586-0.049,0.881v192    c0,2.238,0.937,4.373,2.584,5.888c1.477,1.358,3.41,2.112,5.416,2.112c0.221,0.012,0.443,0.012,0.664,0l288-24    c4.157-0.346,7.35-3.829,7.336-8v-136C448,171.958,444.933,168.533,440.88,168.084z M192,324.676l-32,2.664V152.972l32,3.56    V324.676z M240,320.676l-32,2.664V158.308l32,3.552V320.676z M288,316.676l-32,2.664V163.644l32,3.552V316.676z M336,312.676    l-32,2.664v-146.4l32,3.56V312.676z M384,308.676l-32,2.664V174.276l32,3.56V308.676z M432,304.676l-32,2.664V179.644l32,3.56    V304.676z"/></g><g transform="matrix(0.13641571998596191 0 0 0.13641571998596191 143 160.0000001998277)" id="L1_15"><path d="M225.36,259.98h-22.48c-1.417-4.285-3.155-8.457-5.2-12.48l16-16c3.102-3.12,3.102-8.16,0-11.28l-28.8-28.8    c-3.12-3.102-8.16-3.102-11.28,0l-16,16c-3.951-1.955-8.043-3.613-12.24-4.96v-22.48c0-4.418-3.582-8-8-8H96.4    c-4.418,0-8,3.582-8,8v23.36c-4.033,1.372-7.963,3.029-11.76,4.96L60,191.741c-3.12-3.102-8.16-3.102-11.28,0L20,220.46    c-3.102,3.12-3.102,8.16,0,11.28l16.8,16.8c-1.862,3.698-3.466,7.52-4.8,11.44H8c-4.418,0-8,3.582-8,8v40.72c0,4.418,3.582,8,8,8    h24c1.3,3.972,2.877,7.849,4.72,11.6L20,345.26c-3.102,3.12-3.102,8.16,0,11.28l28.8,28.8c3.12,3.102,8.16,3.102,11.28,0    l16.56-16.56c3.798,1.929,7.728,3.587,11.76,4.96v23.36c0,4.418,3.582,8,8,8h40.72c4.418,0,8-3.582,8-8v-22.88    c4.197-1.349,8.288-3.006,12.24-4.96l16,16c3.12,3.102,8.16,3.102,11.28,0l28.8-28.8c3.102-3.12,3.102-8.16,0-11.28l-16-16    c2.048-4.022,3.786-8.194,5.2-12.48h22.48c4.418,0,8-3.582,8-8v-40.72C233.122,263.654,229.684,260.11,225.36,259.98z     M217.36,300.7h-20.48c-3.742-0.118-7.066,2.374-8,6c-1.702,6.912-4.397,13.541-8,19.68c-1.883,3.144-1.388,7.166,1.2,9.76    l14.48,14.48l-17.52,17.44l-14.64-14.64c-2.562-2.575-6.537-3.1-9.68-1.28c-6.115,3.594-12.716,6.289-19.6,8    c-3.657,0.903-6.19,4.234-6.08,8v20.96H104.4v-21.28c0.118-3.742-2.374-7.066-6-8c-6.72-1.747-13.158-4.441-19.12-8    c-3.144-1.883-7.166-1.388-9.76,1.2l-15.2,15.2l-17.44-17.28L52,335.58c2.575-2.562,3.1-6.537,1.28-9.68    c-3.54-5.915-6.233-12.297-8-18.96c-0.934-3.626-4.258-6.118-8-6H16.16v-24.96H38c3.742,0.118,7.066-2.374,8-6    c1.772-6.661,4.464-13.043,8-18.96c1.561-3.261,0.741-7.163-2-9.52l-15.12-15.36L54.4,208.7l15.2,15.2    c2.594,2.588,6.616,3.083,9.76,1.2c5.966-3.551,12.403-6.245,19.12-8c3.594-0.965,6.047-4.281,5.92-8v-21.12h24.72v20.96    c-0.11,3.766,2.423,7.097,6.08,8c6.884,1.71,13.485,4.405,19.6,8c3.143,1.82,7.118,1.295,9.68-1.28l14.64-14.72l17.52,17.44    l-14.56,14.56c-2.588,2.594-3.083,6.616-1.2,9.76c3.607,6.137,6.302,12.767,8,19.68c0.934,3.626,4.258,6.118,8,6h20.48    L217.36,300.7z"/><path d="M116.8,243.981c-24.742,0-44.8,20.058-44.8,44.8s20.058,44.8,44.8,44.8c24.742,0,44.8-20.058,44.8-44.8    C161.556,264.056,141.524,244.025,116.8,243.981z M116.8,317.34v0.24c-15.906,0-28.8-12.894-28.8-28.8s12.894-28.8,28.8-28.8    c15.906,0,28.8,12.894,28.8,28.8C145.468,304.592,132.613,317.341,116.8,317.34z"/><path d="M439.683,148.359c-0.025-0.127-0.052-0.253-0.083-0.378l-8.64-39.44c-0.956-4.304-5.214-7.023-9.52-6.08l-21.92,4.8    c-2.381-3.879-5.055-7.57-8-11.04L404,77.181c2.379-3.713,1.306-8.65-2.4-11.04l-34.4-22.16c-3.713-2.379-8.65-1.306-11.04,2.4    l-12.32,19.2c-4.285-1.071-8.644-1.82-13.04-2.24l-4.88-22.4c-0.99-4.306-5.284-6.994-9.589-6.003    c-0.111,0.025-0.221,0.053-0.331,0.083l-40,8.72c-4.303,0.956-7.023,5.214-6.08,9.52l5.6,22.72    c-3.663,2.203-7.165,4.662-10.48,7.36L245.28,70.7c-3.713-2.379-8.65-1.306-11.04,2.4L212,107.421    c-2.379,3.713-1.306,8.65,2.4,11.04l20,12.8c-1.006,4.051-1.728,8.168-2.16,12.32l-23.28,5.12c-4.304,0.956-7.023,5.214-6.08,9.52    l8.72,40c0.956,4.304,5.214,7.023,9.52,6.08l23.28-5.04c2.295,3.533,4.835,6.901,7.6,10.08l-12.8,20    c-2.379,3.713-1.306,8.65,2.4,11.04l34.24,22c3.713,2.379,8.65,1.306,11.04-2.4l12.64-19.76c4.126,1.073,8.323,1.848,12.56,2.32    l4.96,22.8c0.805,3.753,4.162,6.405,8,6.32h1.68l40-8.64c4.058-1.305,6.38-5.562,5.28-9.68l-4.88-22.4    c3.802-2.213,7.438-4.7,10.88-7.44l19.44,12.48c3.713,2.379,8.65,1.306,11.04-2.4l22-34.32c2.458-3.671,1.475-8.64-2.196-11.098    c-0.093-0.063-0.188-0.123-0.284-0.182l-18.96-12.16c1.135-4.36,1.937-8.799,2.4-13.28l21.92-4.8    C437.697,156.896,440.528,152.696,439.683,148.359z M402.32,148.541c-3.551,0.758-6.146,3.813-6.32,7.44    c-0.246,7.163-1.54,14.252-3.84,21.04c-1.164,3.479,0.188,7.305,3.28,9.28l17.28,11.04l-13.36,20.8l-17.44-11.2    c-3.073-1.967-7.088-1.605-9.76,0.88c-5.211,4.79-11.084,8.805-17.44,11.92c-3.313,1.612-5.097,5.278-4.32,8.88l4.48,20.48    l-24,5.28l-4.56-20.8c-0.758-3.551-3.813-6.146-7.44-6.32c-6.948-0.307-13.816-1.6-20.4-3.84c-0.826-0.272-1.691-0.407-2.56-0.4    c-2.72,0.005-5.251,1.391-6.72,3.68l-11.6,18.08l-20.8-13.36l11.2-18.4c1.967-3.073,1.605-7.088-0.88-9.76    c-4.659-5.056-8.591-10.737-11.68-16.88c-1.638-3.282-5.298-5.029-8.88-4.24l-21.28,4.64l-5.28-24l21.28-4.64    c3.579-0.766,6.181-3.863,6.32-7.52c0.506-6.946,1.987-13.787,4.4-20.32c1.123-3.456-0.224-7.234-3.28-9.2l-18.24-11.68    l13.36-20.8l17.6,11.36c3.091,2.009,7.155,1.645,9.84-0.88c5.058-4.781,10.768-8.821,16.96-12c3.217-1.655,4.923-5.263,4.16-8.8    l-4.56-20.8l24-5.28l4.48,20.48c0.805,3.753,4.162,6.405,8,6.32c7.071,0.188,14.077,1.4,20.8,3.6    c3.456,1.123,7.234-0.224,9.2-3.28l11.2-17.44l20.8,13.36l-11.12,17.28c-1.988,3.109-1.591,7.174,0.96,9.84    c4.775,5.235,8.763,11.137,11.84,17.52c1.638,3.282,5.298,5.03,8.88,4.24l20-4.32l5.28,24L402.32,148.541z"/><path d="M365.2,143.741c-4.422-20.62-22.671-35.333-43.76-35.28c-24.742-0.009-44.807,20.041-44.817,44.783    s20.041,44.807,44.783,44.817c24.742,0.009,44.807-20.041,44.817-44.783C366.224,150.071,365.881,146.874,365.2,143.741z     M327.44,181.421h0.08c-15.505,3.142-30.702-6.599-34.32-22c-3.37-15.547,6.466-30.891,22-34.32c2.025-0.43,4.09-0.644,6.16-0.64    c15.906-0.023,28.819,12.852,28.842,28.758C350.222,166.813,340.733,178.57,327.44,181.421z"/></g><g transform="matrix(0.09715284788673205 -0.02571693021671983 0.02571693021671983 0.09715284788673205 69.93599349250209 143.76069555655454)" id="L1_16"><path d="m506.632812 316.320312c-3.253906-1.292968-6.96875-.484374-9.386718 2.046876l-36.445313 38.308593v-227.542969h.042969l34.773438-37.546874c3.199218-3.457032 2.988281-8.859376-.472657-12.058594 0 0-.003906-.003906-.007812-.007813l-12.515625-11.648437 17.390625-18.773438c3.195312-3.460937 2.980469-8.859375-.480469-12.054687l-37.546875-34.773438c-3.457031-3.199219-8.855469-2.992187-12.054687.46875l-60.671876 65.511719h-295.390624c-.027344-23.554688-19.113282-42.640625-42.667969-42.667969h-8.53125c-23.554688.027344-42.6406252 19.113281-42.667969 42.667969v366.933594c0 4.710937 3.820312 8.53125 8.535156 8.53125h129.175782l-17.921876 21.519531c-3.011718 3.625-2.519531 9.003906 1.101563 12.015625l39.347656 32.761719c3.621094 3.015625 9.003907 2.523437 12.019531-1.097657 0 0 .003907-.003906.003907-.003906l43.675781-52.472656c3.015625-3.632812 4.957031-8.042969 5.597656-12.722656h156.363282l-51.285157 53.855468c-3.246093 3.414063-3.109375 8.816407.304688 12.0625 1.585937 1.507813 3.691406 2.351563 5.882812 2.347657h170.664063c4.714844 0 8.535156-3.820313 8.535156-8.53125v-179.199219c0-3.492188-2.125-6.632812-5.367188-7.929688zm-29.335937-230.152343-16.496094 17.84375v-12.550781l10.238281-11.09375zm-33.5625-1.519531v.121093l-72.167969 77.996094-25.0625-23.1875 86.9375-93.953125 25.0625 23.1875-14.667968 15.835938zm-88.558594 86.1875-19.628906 5.726562 4.191406-20.019531zm101.453125-150.261719 25.050782 23.175781-11.59375 12.550781-25.054688-23.199219zm-413.960937 22.074219h8.53125c14.140625 0 25.601562 11.460937 25.601562 25.601562v324.488281c-7.34375-5.648437-16.339843-8.726562-25.601562-8.757812h-8.53125c-9.265625.03125-18.257813 3.109375-25.601563 8.757812v-324.488281c0-14.140625 11.460938-25.601562 25.601563-25.601562zm0 358.398437h8.53125c14.140625 0 25.601562 11.464844 25.601562 25.601563h-59.734375c0-14.136719 11.460938-25.601563 25.601563-25.601563zm160.160156 44.476563-5.460937 6.554687-26.230469-21.835937 5.453125-6.5625c3.015625-3.621094 8.394531-4.113282 12.015625-1.097657.003906 0 .003906.003907.007812.003907l13.113281 10.890624c3.625 3.011719 4.121094 8.390626 1.109376 12.015626-.003907.003906-.003907.003906-.007813.007812zm-38.21875 45.910156-26.234375-21.835938 21.839844-26.242187 26.230468 21.839843zm53.339844-64.785156c-1.417969-2.363282-3.210938-4.476563-5.308594-6.261719l-13.113281-10.914063c-10.867188-9.046875-27.007813-7.574218-36.054688 3.292969l-11.578125 13.882813h-58.027343v-341.332032h279.601562l-45.285156 48.9375c-.648438.730469-1.164063 1.574219-1.519532 2.484375-.101562.246094-.179687.476563-.265624.734375-.082032.253906-.210938.511719-.273438.785156l-10.1875 48.707032c-.960938 4.613281 2 9.132812 6.613281 10.09375 1.371094.285156 2.789063.230468 4.128907-.160156l47.789062-13.925782c.222656-.070312.410156-.199218.621094-.273437.214844-.078125.4375-.1875.667968-.300781.957032-.433594 1.824219-1.046876 2.558594-1.800782l65.417969-70.699218v264.695312l-49.578125 52.054688zm276.984375 68.265624h-142.226563l142.226563-149.332031zm0 0"/><path d="m401.714844 472.582031c1.320312 3.1875 4.433594 5.265625 7.886718 5.265625h59.730469c4.714844 0 8.535157-3.820312 8.535157-8.53125v-59.734375c0-4.714843-3.824219-8.53125-8.535157-8.53125-2.261719 0-4.433593.898438-6.03125 2.5l-59.734375 59.730469c-2.441406 2.441406-3.171875 6.113281-1.851562 9.300781zm59.085937-42.402343v30.601562h-30.601562zm0 0"/><path d="m375.464844 324.25h-59.730469v-93.867188c-.011719-2.265624-.914063-4.4375-2.511719-6.042968l-51.199218-51.199219c-3.332032-3.332031-8.734376-3.332031-12.066407 0l-51.199219 51.199219c-1.589843 1.609375-2.484374 3.78125-2.492187 6.042968v93.867188h-59.730469c-4.714844 0-8.535156 3.820312-8.535156 8.53125 0 4.714844 3.820312 8.535156 8.535156 8.535156h238.933594c4.710938 0 8.53125-3.820312 8.53125-8.535156 0-4.710938-3.820312-8.53125-8.535156-8.53125zm-119.464844-133.003906 30.601562 30.601562h-61.203124zm-42.667969 47.667968h85.335938v85.335938h-85.335938zm0 0"/><path d="m247.464844 136.515625h17.070312v17.066406h-17.070312zm0 0"/><path d="m247.464844 358.382812h17.070312v17.066407h-17.070312zm0 0"/></g><g transform="matrix(0.11630424857139587 0 0 0.11630424857139587 222.22611236572266 114.22611236572266)" id="L1_18"><path d="M494.86,367.136h-0.553V322.35c0-111.772-78.086-208.648-186.536-232.659c-0.576-5.779-3.05-11.155-7.161-15.41    c-4.941-5.114-11.578-7.931-18.69-7.931H230.08c-7.112,0-13.749,2.817-18.69,7.931c-4.11,4.255-6.585,9.631-7.161,15.41    C95.779,113.702,17.693,210.578,17.693,322.35v44.786H17.14c-9.452,0-17.14,7.689-17.14,17.14v11.278    c0,7.463,4.721,14.02,11.747,16.317C78.368,433.654,165.113,445.65,256,445.65s177.632-11.996,244.253-33.779    c7.026-2.297,11.747-8.854,11.747-16.317v-11.278C512,374.825,504.311,367.136,494.86,367.136z M223.32,85.806    c1.787-1.849,4.188-2.869,6.76-2.869h51.839c2.572,0,4.973,1.018,6.76,2.869c1.787,1.85,2.723,4.285,2.634,6.855l-7.626,221.166    c-0.176,5.09-4.302,9.077-9.394,9.077h-36.585c-5.092,0-9.218-3.987-9.394-9.076l-7.626-221.166    C220.598,90.09,221.533,87.656,223.32,85.806z M495.413,395.555c0,0.223-0.097,0.48-0.314,0.551    C430.097,417.358,345.183,429.063,256,429.063S81.903,417.358,16.902,396.104c-0.217-0.071-0.314-0.327-0.314-0.55v-11.278    c0-0.305,0.248-0.553,0.553-0.553H335.62c4.58,0,8.294-3.713,8.294-8.294c0-4.58-3.713-8.294-8.294-8.294H34.281V322.35    c0-83.355,46.677-157.8,117.156-195.572l17.996,125.979c0.592,4.137,4.139,7.122,8.201,7.122c0.39,0,0.785-0.028,1.183-0.084    c4.535-0.648,7.686-4.849,7.038-9.383l-18.75-131.258c11.941-5.228,24.463-9.437,37.467-12.521l7.165,207.768    c0.485,14.069,11.893,25.091,25.972,25.091h36.585c14.078,0,25.486-11.022,25.972-25.091l7.165-207.767    c13.003,3.085,25.526,7.294,37.467,12.521l-18.75,131.258c-0.647,4.535,2.504,8.735,7.038,9.383    c0.398,0.056,0.793,0.084,1.183,0.084c4.061,0,7.609-2.986,8.201-7.122l17.996-125.979    c70.479,37.771,117.156,112.215,117.156,195.571v44.786h-53.635c-4.58,0-8.294,3.713-8.294,8.294c0,4.58,3.713,8.294,8.294,8.294    h70.775c0.305,0,0.553,0.248,0.553,0.553V395.555z"/><path d="M388.701,367.136h-17.694c-4.58,0-8.294,3.713-8.294,8.294c0,4.58,3.713,8.294,8.294,8.294h17.694    c4.58,0,8.294-3.713,8.294-8.294C396.995,370.849,393.282,367.136,388.701,367.136z"/><path d="M193.439,303.484l-2.529-17.698c-0.648-4.535-4.846-7.686-9.383-7.038c-4.535,0.648-7.686,4.849-7.038,9.383l2.528,17.698    c0.592,4.137,4.139,7.122,8.201,7.122c0.39,0,0.785-0.028,1.183-0.084C190.936,312.219,194.087,308.018,193.439,303.484z"/><path d="M330.474,278.748c-4.535-0.649-8.735,2.504-9.383,7.038l-2.528,17.698c-0.647,4.535,2.504,8.735,7.038,9.383    c0.397,0.056,0.793,0.084,1.183,0.084c4.061,0,7.609-2.986,8.201-7.122l2.528-17.698    C338.159,283.597,335.008,279.396,330.474,278.748z"/></g><path d="M25.383,290.5c-7.2-77.5,25.9-147.7,80.8-192.3c21.4-17.4,53.4-2.5,53.4,25l0,0c0,10.1-4.8,19.4-12.6,25.7    c-38.9,31.7-62.3,81.7-56.6,136.9c7.4,71.9,65,130.1,136.8,138.1c93.7,10.5,173.3-62.9,173.3-154.5c0-48.6-22.5-92.1-57.6-120.6    c-7.8-6.3-12.5-15.6-12.5-25.6l0,0c0-27.2,31.5-42.6,52.7-25.6c50.2,40.5,82.4,102.4,82.4,171.8c0,126.9-107.8,229.2-236.7,219.9    C122.183,481.8,35.283,396.9,25.383,290.5z M244.883,0c-18,0-32.5,14.6-32.5,32.5v149.7c0,18,14.6,32.5,32.5,32.5    s32.5-14.6,32.5-32.5V32.5C277.383,14.6,262.883,0,244.883,0z" transform="matrix(0.030178640680232 -0.003017864113812182 0.003017864113812182 0.030178640680232 201.58291609832995 106.29676125134762)" id="L1_19"/><path d="M473.15,376.625c22.6-22.6,22.6-59.3,0-81.8c-22.6-22.6-59.3-22.6-81.8,0l-30.7,30.7c-8.5,8.5-22.4,8.5-30.9,0l-54.8-54.9    c-3.4-3.4-8-5.3-12.7-5.3c-4.8,0-9.4,1.9-12.7,5.3c-15,15-34.9,23.3-56.2,23.3c-21.3,0-41.2-8.3-56.2-23.3l-49.6-49.6l112.3-112.3    l49.6,49.6c13.8,13.8,22,32.1,23.1,51.5c0.6,9.6,8.5,17,18,17c0.3,0,0.7,0,1.1,0c9.9-0.6,17.5-9.1,16.9-19    c-1.6-28.3-13.6-54.9-33.6-74.9l-49.6-49.6l5.5-5.5c7-7,7-18.4,0-25.5c-7-7-18.4-7-25.5,0l-35.3,35.3l-61.2-61.2    c-7-7-18.4-7-25.5,0c-7,7-7,18.4,0,25.5l61.2,61.2l-52.6,52.6l-61.2-61.2c-7-7-18.4-7-25.5,0c-7,7-7,18.4,0,25.5l61.3,61.2    l-35.3,35.3c-7,7-7,18.4,0,25.5c3.5,3.5,8.1,5.3,12.7,5.3c4.6,0,9.2-1.8,12.7-5.3l5.5-5.5l49.6,49.6    c21.8,21.8,50.8,33.8,81.6,33.8c24.7,0,48.3-7.7,67.9-22.1l43.1,43.1c11.3,11.3,26.1,16.9,40.9,16.9s29.6-5.6,40.9-16.9l30.7-30.7    c8.5-8.5,22.4-8.5,30.9,0s8.5,22.4,0,30.9l-30.7,30.7c-10.9,10.9-16.9,25.4-16.9,40.9s6,30,16.9,40.9c3.5,3.5,8.1,5.3,12.7,5.3    c4.6,0,9.2-1.8,12.7-5.3c7-7,7-18.4,0-25.5c-4.1-4.1-6.4-9.6-6.4-15.4s2.3-11.3,6.4-15.4L473.15,376.625z" transform="matrix(0.0692441314458847 0 0 0.0692441314458847 154.02906572818756 114.98519154735163)" id="L1_20"/></defs><g fi:class="KUsePattern"><pattern id="pattern_L1_0" width="350" height="350" patternUnits="userSpaceOnUse"><use xlink:href="#L1_0" x="-350" y="-350"/><use xlink:href="#L1_0" x="0" y="-350"/><use xlink:href="#L1_0" x="350" y="-350"/><use xlink:href="#L1_0" x="-350" y="0"/><use xlink:href="#L1_0" x="0" y="0"/><use xlink:href="#L1_0" x="350" y="0"/><use xlink:href="#L1_0" x="-350" y="350"/><use xlink:href="#L1_0" x="0" y="350"/><use xlink:href="#L1_0" x="350" y="350"/></pattern><rect x="0" y="0" width="100%" height="100%" fill="url(#pattern_L1_0)"/></g><g fi:class="KUsePattern"><pattern id="pattern_L1_1" width="350" height="350" patternUnits="userSpaceOnUse"><use xlink:href="#L1_1" x="-350" y="-350"/><use xlink:href="#L1_1" x="0" y="-350"/><use xlink:href="#L1_1" x="350" y="-350"/><use xlink:href="#L1_1" x="-350" y="0"/><use xlink:href="#L1_1" x="0" y="0"/><use xlink:href="#L1_1" x="350" y="0"/><use xlink:href="#L1_1" x="-350" y="350"/><use xlink:href="#L1_1" x="0" y="350"/><use xlink:href="#L1_1" x="350" y="350"/></pattern><rect x="0" y="0" width="100%" height="100%" fill="url(#pattern_L1_1)"/></g><g fi:class="KUsePattern"><pattern id="pattern_L1_2" width="350" height="350" patternUnits="userSpaceOnUse"><use xlink:href="#L1_2" x="-350" y="-350"/><use xlink:href="#L1_2" x="0" y="-350"/><use xlink:href="#L1_2" x="350" y="-350"/><use xlink:href="#L1_2" x="-350" y="0"/><use xlink:href="#L1_2" x="0" y="0"/><use xlink:href="#L1_2" x="350" y="0"/><use xlink:href="#L1_2" x="-350" y="350"/><use xlink:href="#L1_2" x="0" y="350"/><use xlink:href="#L1_2" x="350" y="350"/></pattern><rect x="0" y="0" width="100%" height="100%" fill="url(#pattern_L1_2)"/></g><g fi:class="KUsePattern"><pattern id="pattern_L1_3" width="350" height="350" patternUnits="userSpaceOnUse"><use xlink:href="#L1_3" x="-350" y="-350"/><use xlink:href="#L1_3" x="0" y="-350"/><use xlink:href="#L1_3" x="350" y="-350"/><use xlink:href="#L1_3" x="-350" y="0"/><use xlink:href="#L1_3" x="0" y="0"/><use xlink:href="#L1_3" x="350" y="0"/><use xlink:href="#L1_3" x="-350" y="350"/><use xlink:href="#L1_3" x="0" y="350"/><use xlink:href="#L1_3" x="350" y="350"/></pattern><rect x="0" y="0" width="100%" height="100%" fill="url(#pattern_L1_3)"/></g><g fi:class="KUsePattern"><pattern id="pattern_L1_4" width="350" height="350" patternUnits="userSpaceOnUse"><use xlink:href="#L1_4" x="-350" y="-350"/><use xlink:href="#L1_4" x="0" y="-350"/><use xlink:href="#L1_4" x="350" y="-350"/><use xlink:href="#L1_4" x="-350" y="0"/><use xlink:href="#L1_4" x="0" y="0"/><use xlink:href="#L1_4" x="350" y="0"/><use xlink:href="#L1_4" x="-350" y="350"/><use xlink:href="#L1_4" x="0" y="350"/><use xlink:href="#L1_4" x="350" y="350"/></pattern><rect x="0" y="0" width="100%" height="100%" fill="url(#pattern_L1_4)"/></g><g fi:class="KUsePattern"><pattern id="pattern_L1_5" width="350" height="350" patternUnits="userSpaceOnUse"><use xlink:href="#L1_5" x="-350" y="-350"/><use xlink:href="#L1_5" x="0" y="-350"/><use xlink:href="#L1_5" x="350" y="-350"/><use xlink:href="#L1_5" x="-350" y="0"/><use xlink:href="#L1_5" x="0" y="0"/><use xlink:href="#L1_5" x="350" y="0"/><use xlink:href="#L1_5" x="-350" y="350"/><use xlink:href="#L1_5" x="0" y="350"/><use xlink:href="#L1_5" x="350" y="350"/></pattern><rect x="0" y="0" width="100%" height="100%" fill="url(#pattern_L1_5)"/></g><g fi:class="KUsePattern"><pattern id="pattern_L1_6" width="350" height="350" patternUnits="userSpaceOnUse"><use xlink:href="#L1_6" x="-350" y="-350"/><use xlink:href="#L1_6" x="0" y="-350"/><use xlink:href="#L1_6" x="350" y="-350"/><use xlink:href="#L1_6" x="-350" y="0"/><use xlink:href="#L1_6" x="0" y="0"/><use xlink:href="#L1_6" x="350" y="0"/><use xlink:href="#L1_6" x="-350" y="350"/><use xlink:href="#L1_6" x="0" y="350"/><use xlink:href="#L1_6" x="350" y="350"/></pattern><rect x="0" y="0" width="100%" height="100%" fill="url(#pattern_L1_6)"/></g><g fi:class="KUsePattern"><pattern id="pattern_L1_7" width="350" height="350" patternUnits="userSpaceOnUse"><use xlink:href="#L1_7" x="-350" y="-350"/><use xlink:href="#L1_7" x="0" y="-350"/><use xlink:href="#L1_7" x="350" y="-350"/><use xlink:href="#L1_7" x="-350" y="0"/><use xlink:href="#L1_7" x="0" y="0"/><use xlink:href="#L1_7" x="350" y="0"/><use xlink:href="#L1_7" x="-350" y="350"/><use xlink:href="#L1_7" x="0" y="350"/><use xlink:href="#L1_7" x="350" y="350"/></pattern><rect x="0" y="0" width="100%" height="100%" fill="url(#pattern_L1_7)"/></g><g fi:class="KUsePattern"><pattern id="pattern_L1_8" width="350" height="350" patternUnits="userSpaceOnUse"><use xlink:href="#L1_8" x="-350" y="-350"/><use xlink:href="#L1_8" x="0" y="-350"/><use xlink:href="#L1_8" x="350" y="-350"/><use xlink:href="#L1_8" x="-350" y="0"/><use xlink:href="#L1_8" x="0" y="0"/><use xlink:href="#L1_8" x="350" y="0"/><use xlink:href="#L1_8" x="-350" y="350"/><use xlink:href="#L1_8" x="0" y="350"/><use xlink:href="#L1_8" x="350" y="350"/></pattern><rect x="0" y="0" width="100%" height="100%" fill="url(#pattern_L1_8)"/></g><g fi:class="KUsePattern"><pattern id="pattern_L1_9" width="350" height="350" patternUnits="userSpaceOnUse"><use xlink:href="#L1_9" x="-350" y="-350"/><use xlink:href="#L1_9" x="0" y="-350"/><use xlink:href="#L1_9" x="350" y="-350"/><use xlink:href="#L1_9" x="-350" y="0"/><use xlink:href="#L1_9" x="0" y="0"/><use xlink:href="#L1_9" x="350" y="0"/><use xlink:href="#L1_9" x="-350" y="350"/><use xlink:href="#L1_9" x="0" y="350"/><use xlink:href="#L1_9" x="350" y="350"/></pattern><rect x="0" y="0" width="100%" height="100%" fill="url(#pattern_L1_9)"/></g><g fi:class="KUsePattern"><pattern id="pattern_L1_10" width="350" height="350" patternUnits="userSpaceOnUse"><use xlink:href="#L1_10" x="-350" y="-350"/><use xlink:href="#L1_10" x="0" y="-350"/><use xlink:href="#L1_10" x="350" y="-350"/><use xlink:href="#L1_10" x="-350" y="0"/><use xlink:href="#L1_10" x="0" y="0"/><use xlink:href="#L1_10" x="350" y="0"/><use xlink:href="#L1_10" x="-350" y="350"/><use xlink:href="#L1_10" x="0" y="350"/><use xlink:href="#L1_10" x="350" y="350"/></pattern><rect x="0" y="0" width="100%" height="100%" fill="url(#pattern_L1_10)"/></g><g fi:class="KUsePattern"><pattern id="pattern_L1_11" width="350" height="350" patternUnits="userSpaceOnUse"><use xlink:href="#L1_11" x="-350" y="-350"/><use xlink:href="#L1_11" x="0" y="-350"/><use xlink:href="#L1_11" x="350" y="-350"/><use xlink:href="#L1_11" x="-350" y="0"/><use xlink:href="#L1_11" x="0" y="0"/><use xlink:href="#L1_11" x="350" y="0"/><use xlink:href="#L1_11" x="-350" y="350"/><use xlink:href="#L1_11" x="0" y="350"/><use xlink:href="#L1_11" x="350" y="350"/></pattern><rect x="0" y="0" width="100%" height="100%" fill="url(#pattern_L1_11)"/></g><g fi:class="KUsePattern"><pattern id="pattern_L1_12" width="350" height="350" patternUnits="userSpaceOnUse"><use xlink:href="#L1_12" x="-350" y="-350"/><use xlink:href="#L1_12" x="0" y="-350"/><use xlink:href="#L1_12" x="350" y="-350"/><use xlink:href="#L1_12" x="-350" y="0"/><use xlink:href="#L1_12" x="0" y="0"/><use xlink:href="#L1_12" x="350" y="0"/><use xlink:href="#L1_12" x="-350" y="350"/><use xlink:href="#L1_12" x="0" y="350"/><use xlink:href="#L1_12" x="350" y="350"/></pattern><rect x="0" y="0" width="100%" height="100%" fill="url(#pattern_L1_12)"/></g><g fi:class="KUsePattern"><pattern id="pattern_L1_13" width="350" height="350" patternUnits="userSpaceOnUse"><use xlink:href="#L1_13" x="-350" y="-350"/><use xlink:href="#L1_13" x="0" y="-350"/><use xlink:href="#L1_13" x="350" y="-350"/><use xlink:href="#L1_13" x="-350" y="0"/><use xlink:href="#L1_13" x="0" y="0"/><use xlink:href="#L1_13" x="350" y="0"/><use xlink:href="#L1_13" x="-350" y="350"/><use xlink:href="#L1_13" x="0" y="350"/><use xlink:href="#L1_13" x="350" y="350"/></pattern><rect x="0" y="0" width="100%" height="100%" fill="url(#pattern_L1_13)"/></g><g fi:class="KUsePattern"><pattern id="pattern_L1_14" width="350" height="350" patternUnits="userSpaceOnUse"><use xlink:href="#L1_14" x="-350" y="-350"/><use xlink:href="#L1_14" x="0" y="-350"/><use xlink:href="#L1_14" x="350" y="-350"/><use xlink:href="#L1_14" x="-350" y="0"/><use xlink:href="#L1_14" x="0" y="0"/><use xlink:href="#L1_14" x="350" y="0"/><use xlink:href="#L1_14" x="-350" y="350"/><use xlink:href="#L1_14" x="0" y="350"/><use xlink:href="#L1_14" x="350" y="350"/></pattern><rect x="0" y="0" width="100%" height="100%" fill="url(#pattern_L1_14)"/></g><g fi:class="KUsePattern"><pattern id="pattern_L1_15" width="350" height="350" patternUnits="userSpaceOnUse"><use xlink:href="#L1_15" x="-350" y="-350"/><use xlink:href="#L1_15" x="0" y="-350"/><use xlink:href="#L1_15" x="350" y="-350"/><use xlink:href="#L1_15" x="-350" y="0"/><use xlink:href="#L1_15" x="0" y="0"/><use xlink:href="#L1_15" x="350" y="0"/><use xlink:href="#L1_15" x="-350" y="350"/><use xlink:href="#L1_15" x="0" y="350"/><use xlink:href="#L1_15" x="350" y="350"/></pattern><rect x="0" y="0" width="100%" height="100%" fill="url(#pattern_L1_15)"/></g><g fi:class="KUsePattern"><pattern id="pattern_L1_16" width="350" height="350" patternUnits="userSpaceOnUse"><use xlink:href="#L1_16" x="-350" y="-350"/><use xlink:href="#L1_16" x="0" y="-350"/><use xlink:href="#L1_16" x="350" y="-350"/><use xlink:href="#L1_16" x="-350" y="0"/><use xlink:href="#L1_16" x="0" y="0"/><use xlink:href="#L1_16" x="350" y="0"/><use xlink:href="#L1_16" x="-350" y="350"/><use xlink:href="#L1_16" x="0" y="350"/><use xlink:href="#L1_16" x="350" y="350"/></pattern><rect x="0" y="0" width="100%" height="100%" fill="url(#pattern_L1_16)"/></g><g fi:class="KUsePattern"><pattern id="pattern_L1_18" width="350" height="350" patternUnits="userSpaceOnUse"><use xlink:href="#L1_18" x="-350" y="-350"/><use xlink:href="#L1_18" x="0" y="-350"/><use xlink:href="#L1_18" x="350" y="-350"/><use xlink:href="#L1_18" x="-350" y="0"/><use xlink:href="#L1_18" x="0" y="0"/><use xlink:href="#L1_18" x="350" y="0"/><use xlink:href="#L1_18" x="-350" y="350"/><use xlink:href="#L1_18" x="0" y="350"/><use xlink:href="#L1_18" x="350" y="350"/></pattern><rect x="0" y="0" width="100%" height="100%" fill="url(#pattern_L1_18)"/></g><g fi:class="KUsePattern"><pattern id="pattern_L1_19" width="350" height="350" patternUnits="userSpaceOnUse"><use xlink:href="#L1_19" x="-350" y="-350"/><use xlink:href="#L1_19" x="0" y="-350"/><use xlink:href="#L1_19" x="350" y="-350"/><use xlink:href="#L1_19" x="-350" y="0"/><use xlink:href="#L1_19" x="0" y="0"/><use xlink:href="#L1_19" x="350" y="0"/><use xlink:href="#L1_19" x="-350" y="350"/><use xlink:href="#L1_19" x="0" y="350"/><use xlink:href="#L1_19" x="350" y="350"/></pattern><rect x="0" y="0" width="100%" height="100%" fill="url(#pattern_L1_19)"/></g><g fi:class="KUsePattern"><pattern id="pattern_L1_20" width="350" height="350" patternUnits="userSpaceOnUse"><use xlink:href="#L1_20" x="-350" y="-350"/><use xlink:href="#L1_20" x="0" y="-350"/><use xlink:href="#L1_20" x="350" y="-350"/><use xlink:href="#L1_20" x="-350" y="0"/><use xlink:href="#L1_20" x="0" y="0"/><use xlink:href="#L1_20" x="350" y="0"/><use xlink:href="#L1_20" x="-350" y="350"/><use xlink:href="#L1_20" x="0" y="350"/><use xlink:href="#L1_20" x="350" y="350"/></pattern><rect x="0" y="0" width="100%" height="100%" fill="url(#pattern_L1_20)"/></g></svg>